<svg xmlns="http://www.w3.org/2000/svg" version="1.1" xmlns:xlink="http://www.w3.org/1999/xlink" xmlns:svgjs="http://svgjs.dev/svgjs" width="2000" height="474" viewBox="0 0 2000 474"><g transform="matrix(1,0,0,1,-1.2121212121212466,0.046125915207682056)"><svg viewBox="0 0 396 94" data-background-color="#ffffff" preserveAspectRatio="xMidYMid meet" height="474" width="2000" xmlns="http://www.w3.org/2000/svg" xmlns:xlink="http://www.w3.org/1999/xlink"><g id="tight-bounds" transform="matrix(1,0,0,1,0.2400000000000091,-0.009147333395617352)"><svg viewBox="0 0 395.52 94.01829466679123" height="94.01829466679123" width="395.52"><g><svg viewBox="0 0 395.52 94.01829466679123" height="94.01829466679123" width="395.52"><g><svg viewBox="0 0 395.52 94.01829466679123" height="94.01829466679123" width="395.52"><g id="textblocktransform"><svg viewBox="0 0 395.52 94.01829466679123" height="94.01829466679123" width="395.52" id="textblock"><g><svg viewBox="0 0 395.52 55.99662529164722" height="55.99662529164722" width="395.52"><g transform="matrix(1,0,0,1,0,0)"><svg width="395.52" viewBox="3.25 -36.55 261.57 37.04" height="55.99662529164722" data-palette-color="#3d3839"><path d="M31.25-35.01L31.25 0 23.75 0 10.25-23.05 10.25 0 3.25 0 3.25-35.01 10.74-35.01 24.24-11.94 24.24-35.01 31.25-35.01ZM61.91-13.31L61.91-13.31Q61.91-10.38 60.86-7.85 59.81-5.32 58.01-3.48 56.2-1.64 53.77-0.57 51.34 0.49 48.56 0.49L48.56 0.49Q45.8 0.49 43.37-0.57 40.94-1.64 39.12-3.48 37.3-5.32 36.25-7.85 35.2-10.38 35.2-13.31L35.2-13.31Q35.2-16.28 36.25-18.82 37.3-21.36 39.12-23.21 40.94-25.05 43.37-26.1 45.8-27.15 48.56-27.15L48.56-27.15Q51.34-27.15 53.77-26.16 56.2-25.17 58.01-23.35 59.81-21.53 60.86-18.98 61.91-16.43 61.91-13.31ZM55.2-13.31L55.2-13.31Q55.2-14.92 54.67-16.22 54.15-17.53 53.24-18.47 52.34-19.41 51.13-19.91 49.92-20.41 48.56-20.41L48.56-20.41Q47.19-20.41 45.98-19.91 44.77-19.41 43.88-18.47 42.99-17.53 42.48-16.22 41.97-14.92 41.97-13.31L41.97-13.31Q41.97-11.79 42.48-10.5 42.99-9.2 43.88-8.25 44.77-7.3 45.98-6.75 47.19-6.2 48.56-6.2L48.56-6.2Q49.92-6.2 51.13-6.71 52.34-7.23 53.24-8.15 54.15-9.08 54.67-10.4 55.2-11.72 55.2-13.31ZM83.56 0L78.51 0Q76.09 0 73.97-0.92 71.85-1.83 70.25-3.43 68.65-5.03 67.73-7.15 66.82-9.28 66.82-11.69L66.82-11.69 66.82-19.46 63.57-19.46 63.57-26.1 66.82-26.1 66.82-36.55 73.46-36.55 73.46-26.1 83.56-26.1 83.56-19.46 73.46-19.46 73.46-11.69Q73.46-10.64 73.85-9.73 74.24-8.81 74.92-8.13 75.61-7.45 76.53-7.04 77.46-6.64 78.51-6.64L78.51-6.64 83.56-6.64 83.56 0ZM110.2-21.46L97.7-6.4Q98.09-6.27 98.48-6.24 98.87-6.2 99.26-6.2L99.26-6.2Q100.24-6.2 101.14-6.47 102.04-6.74 102.84-7.24 103.63-7.74 104.25-8.46 104.88-9.18 105.27-10.06L105.27-10.06 110.15-5.15Q109.22-3.83 108.01-2.78 106.8-1.73 105.4-1 104-0.27 102.45 0.11 100.9 0.49 99.26 0.49L99.26 0.49Q96.5 0.49 94.07-0.54 91.64-1.56 89.82-3.39 88.01-5.22 86.96-7.75 85.91-10.28 85.91-13.31L85.91-13.31Q85.91-16.41 86.96-18.97 88.01-21.53 89.82-23.34 91.64-25.15 94.07-26.15 96.5-27.15 99.26-27.15L99.26-27.15Q100.9-27.15 102.46-26.76 104.02-26.37 105.42-25.63 106.83-24.9 108.05-23.84 109.27-22.78 110.2-21.46L110.2-21.46ZM93.35-9.84L101.12-20.14Q100.65-20.31 100.2-20.36 99.75-20.41 99.26-20.41L99.26-20.41Q97.89-20.41 96.68-19.91 95.48-19.41 94.58-18.48 93.69-17.55 93.18-16.25 92.67-14.94 92.67-13.31L92.67-13.31Q92.67-12.94 92.7-12.48 92.74-12.01 92.83-11.54 92.91-11.06 93.03-10.62 93.16-10.18 93.35-9.84L93.35-9.84ZM156.24-35.01L156.24 0 148.74 0 135.24-23.05 135.24 0 128.23 0 128.23-35.01 135.73-35.01 149.23-11.94 149.23-35.01 156.24-35.01ZM184.53-21.46L172.03-6.4Q172.42-6.27 172.81-6.24 173.2-6.2 173.59-6.2L173.59-6.2Q174.57-6.2 175.47-6.47 176.38-6.74 177.17-7.24 177.96-7.74 178.59-8.46 179.21-9.18 179.6-10.06L179.6-10.06 184.48-5.15Q183.55-3.83 182.35-2.78 181.14-1.73 179.73-1 178.33-0.27 176.78 0.11 175.23 0.49 173.59 0.49L173.59 0.49Q170.83 0.49 168.41-0.54 165.98-1.56 164.16-3.39 162.34-5.22 161.29-7.75 160.24-10.28 160.24-13.31L160.24-13.31Q160.24-16.41 161.29-18.97 162.34-21.53 164.16-23.34 165.98-25.15 168.41-26.15 170.83-27.15 173.59-27.15L173.59-27.15Q175.23-27.15 176.79-26.76 178.35-26.37 179.76-25.63 181.16-24.9 182.38-23.84 183.6-22.78 184.53-21.46L184.53-21.46ZM167.69-9.84L175.45-20.14Q174.99-20.31 174.53-20.36 174.08-20.41 173.59-20.41L173.59-20.41Q172.23-20.41 171.02-19.91 169.81-19.41 168.92-18.48 168.03-17.55 167.51-16.25 167-14.94 167-13.31L167-13.31Q167-12.94 167.04-12.48 167.07-12.01 167.16-11.54 167.25-11.06 167.37-10.62 167.49-10.18 167.69-9.84L167.69-9.84ZM202.13-13.4L211.7 0 203.55 0 198.35-8.01 193.1 0 184.94 0 194.49-13.4 184.94-26.29 193.1-26.29 198.35-18.8 203.55-26.29 211.7-26.29 202.13-13.4ZM235.48 0L233.28-3.05Q232.48-2.32 231.56-1.67 230.64-1.03 229.64-0.55 228.64-0.07 227.58 0.21 226.52 0.49 225.42 0.49L225.42 0.49Q223 0.49 220.88-0.37 218.75-1.22 217.16-2.8 215.56-4.37 214.64-6.63 213.73-8.89 213.73-11.69L213.73-11.69 213.73-26.15 220.37-26.15 220.37-11.69Q220.37-10.38 220.77-9.34 221.17-8.3 221.86-7.59 222.54-6.88 223.45-6.52 224.37-6.15 225.42-6.15L225.42-6.15Q226.44-6.15 227.36-6.63 228.28-7.1 228.96-7.89 229.64-8.67 230.03-9.66 230.42-10.64 230.42-11.69L230.42-11.69 230.42-26.15 237.09-26.15 237.09 0 235.48 0ZM256.52 0L256.52 0 241.29 0 241.29-6.64 256.52-6.64Q257.2-6.64 257.69-7.13 258.18-7.62 258.18-8.3L258.18-8.3Q258.18-9.01 257.69-9.23 257.2-9.45 256.52-9.45L256.52-9.45 249.59-9.45Q247.85-9.45 246.34-10.11 244.83-10.77 243.7-11.9 242.58-13.04 241.93-14.55 241.29-16.06 241.29-17.8L241.29-17.8Q241.29-19.53 241.93-21.04 242.58-22.56 243.7-23.68 244.83-24.8 246.34-25.45 247.85-26.1 249.59-26.1L249.59-26.1 263.09-26.1 263.09-19.46 249.59-19.46Q248.9-19.46 248.42-18.97 247.93-18.48 247.93-17.8L247.93-17.8Q247.93-17.09 248.42-16.59 248.9-16.09 249.59-16.09L249.59-16.09 256.52-16.09Q258.23-16.09 259.74-15.52 261.26-14.94 262.38-13.92 263.5-12.89 264.16-11.45 264.82-10.01 264.82-8.3L264.82-8.3Q264.82-6.57 264.16-5.07 263.5-3.56 262.38-2.43 261.26-1.29 259.74-0.65 258.23 0 256.52 0Z" opacity="1" transform="matrix(1,0,0,1,0,0)" fill="#000000" class="wordmark-text-0" data-fill-palette-color="primary" id="text-0"></path></svg></g></svg></g><g transform="matrix(1,0,0,1,76.13759999999996,69.21608460399813)"><svg viewBox="0 0 319.3824 24.8022100627931" height="24.8022100627931" width="319.3824"><g transform="matrix(1,0,0,1,0,0)"><svg width="319.3824" viewBox="1.34 -37.7 614.25 47.71" height="24.8022100627931" data-palette-color="#64b1ce"><path d="M27.49-9.69L31.2-3.59Q28.76-1.49 25.73-0.37 22.71 0.76 19.46 0.76L19.46 0.76Q16.97 0.76 14.66 0.11 12.35-0.54 10.34-1.72 8.33-2.91 6.67-4.57 5-6.23 3.82-8.24 2.64-10.25 1.99-12.56 1.34-14.87 1.34-17.36L1.34-17.36Q1.34-19.85 1.99-22.17 2.64-24.49 3.82-26.5 5-28.52 6.67-30.18 8.33-31.84 10.34-33.02 12.35-34.2 14.66-34.85 16.97-35.5 19.46-35.5L19.46-35.5Q22.71-35.5 25.73-34.39 28.76-33.28 31.2-31.15L31.2-31.15 27.49-25.05Q25.95-26.71 23.85-27.6 21.75-28.49 19.46-28.49L19.46-28.49Q17.14-28.49 15.11-27.61 13.09-26.73 11.57-25.23 10.06-23.73 9.18-21.69 8.3-19.65 8.3-17.36L8.3-17.36Q8.3-15.06 9.18-13.05 10.06-11.04 11.57-9.52 13.09-8.01 15.11-7.13 17.14-6.25 19.46-6.25L19.46-6.25Q21.75-6.25 23.85-7.14 25.95-8.03 27.49-9.69L27.49-9.69ZM58.91-13.31L58.91-13.31Q58.91-10.38 57.86-7.85 56.81-5.32 55-3.48 53.2-1.64 50.77-0.57 48.34 0.49 45.55 0.49L45.55 0.49Q42.8 0.49 40.37-0.57 37.94-1.64 36.12-3.48 34.3-5.32 33.25-7.85 32.2-10.38 32.2-13.31L32.2-13.31Q32.2-16.28 33.25-18.82 34.3-21.36 36.12-23.21 37.94-25.05 40.37-26.1 42.8-27.15 45.55-27.15L45.55-27.15Q48.34-27.15 50.77-26.16 53.2-25.17 55-23.35 56.81-21.53 57.86-18.98 58.91-16.43 58.91-13.31ZM52.19-13.31L52.19-13.31Q52.19-14.92 51.67-16.22 51.14-17.53 50.24-18.47 49.34-19.41 48.13-19.91 46.92-20.41 45.55-20.41L45.55-20.41Q44.19-20.41 42.98-19.91 41.77-19.41 40.88-18.47 39.99-17.53 39.48-16.22 38.96-14.92 38.96-13.31L38.96-13.31Q38.96-11.79 39.48-10.5 39.99-9.2 40.88-8.25 41.77-7.3 42.98-6.75 44.19-6.2 45.55-6.2L45.55-6.2Q46.92-6.2 48.13-6.71 49.34-7.23 50.24-8.15 51.14-9.08 51.67-10.4 52.19-11.72 52.19-13.31ZM69.26-14.94L69.26 0 62.59 0 62.59-26.15 64.2-26.15 66.4-23.61Q68.01-25.07 70.05-25.87 72.09-26.66 74.31-26.66L74.31-26.66Q76.7-26.66 78.83-25.74 80.95-24.83 82.54-23.23 84.13-21.63 85.04-19.49 85.96-17.36 85.96-14.94L85.96-14.94 85.96 0 79.29 0 79.29-14.94Q79.29-15.97 78.9-16.88 78.51-17.8 77.83-18.48 77.14-19.17 76.24-19.56 75.34-19.95 74.31-19.95L74.31-19.95Q73.26-19.95 72.33-19.56 71.41-19.17 70.72-18.48 70.04-17.8 69.65-16.88 69.26-15.97 69.26-14.94L69.26-14.94ZM97.36-14.94L97.36 0 90.69 0 90.69-26.15 92.3-26.15 94.5-23.61Q96.11-25.07 98.15-25.87 100.19-26.66 102.41-26.66L102.41-26.66Q104.8-26.66 106.93-25.74 109.05-24.83 110.64-23.23 112.22-21.63 113.14-19.49 114.06-17.36 114.06-14.94L114.06-14.94 114.06 0 107.39 0 107.39-14.94Q107.39-15.97 107-16.88 106.61-17.8 105.93-18.48 105.24-19.17 104.34-19.56 103.43-19.95 102.41-19.95L102.41-19.95Q101.36-19.95 100.43-19.56 99.5-19.17 98.82-18.48 98.14-17.8 97.75-16.88 97.36-15.97 97.36-14.94L97.36-14.94ZM141.69-21.46L129.19-6.4Q129.58-6.27 129.97-6.24 130.36-6.2 130.75-6.2L130.75-6.2Q131.73-6.2 132.63-6.47 133.53-6.74 134.33-7.24 135.12-7.74 135.74-8.46 136.37-9.18 136.76-10.06L136.76-10.06 141.64-5.15Q140.71-3.83 139.5-2.78 138.3-1.73 136.89-1 135.49-0.27 133.94 0.11 132.39 0.49 130.75 0.49L130.75 0.49Q127.99 0.49 125.56-0.54 123.13-1.56 121.32-3.39 119.5-5.22 118.45-7.75 117.4-10.28 117.4-13.31L117.4-13.31Q117.4-16.41 118.45-18.97 119.5-21.53 121.32-23.34 123.13-25.15 125.56-26.15 127.99-27.15 130.75-27.15L130.75-27.15Q132.39-27.15 133.95-26.76 135.51-26.37 136.92-25.63 138.32-24.9 139.54-23.84 140.76-22.78 141.69-21.46L141.69-21.46ZM124.84-9.84L132.61-20.14Q132.14-20.31 131.69-20.36 131.24-20.41 130.75-20.41L130.75-20.41Q129.38-20.41 128.18-19.91 126.97-19.41 126.08-18.48 125.19-17.55 124.67-16.25 124.16-14.94 124.16-13.31L124.16-13.31Q124.16-12.94 124.2-12.48 124.23-12.01 124.32-11.54 124.4-11.06 124.53-10.62 124.65-10.18 124.84-9.84L124.84-9.84ZM167.69-20.95L167.69-20.95 162.8-16.04Q162.44-17.07 161.8-17.88 161.17-18.7 160.38-19.26 159.58-19.82 158.65-20.12 157.73-20.41 156.75-20.41L156.75-20.41Q155.38-20.41 154.17-19.85 152.97-19.29 152.07-18.27 151.18-17.26 150.67-15.87 150.16-14.48 150.16-12.79L150.16-12.79Q150.16-11.43 150.67-10.23 151.18-9.03 152.07-8.13 152.97-7.23 154.17-6.71 155.38-6.2 156.75-6.2L156.75-6.2Q157.73-6.2 158.63-6.47 159.53-6.74 160.33-7.24 161.12-7.74 161.74-8.46 162.37-9.18 162.76-10.06L162.76-10.06 167.64-5.15Q166.71-3.83 165.5-2.78 164.29-1.73 162.89-1 161.49-0.27 159.94 0.11 158.39 0.49 156.75 0.49L156.75 0.49Q153.99 0.49 151.56-0.55 149.13-1.59 147.31-3.39 145.5-5.2 144.45-7.62 143.4-10.03 143.4-12.79L143.4-12.79Q143.4-15.8 144.45-18.41 145.5-21.02 147.31-22.96 149.13-24.9 151.56-26.03 153.99-27.15 156.75-27.15L156.75-27.15Q158.39-27.15 159.96-26.73 161.54-26.32 162.96-25.52 164.39-24.73 165.6-23.58 166.81-22.44 167.69-20.95ZM189.1 0L184.04 0Q181.63 0 179.5-0.92 177.38-1.83 175.78-3.43 174.18-5.03 173.26-7.15 172.35-9.28 172.35-11.69L172.35-11.69 172.35-19.46 169.1-19.46 169.1-26.1 172.35-26.1 172.35-36.55 178.99-36.55 178.99-26.1 189.1-26.1 189.1-19.46 178.99-19.46 178.99-11.69Q178.99-10.64 179.38-9.73 179.77-8.81 180.45-8.13 181.14-7.45 182.07-7.04 182.99-6.64 184.04-6.64L184.04-6.64 189.1-6.64 189.1 0ZM200.69-33.25L200.69-33.25Q200.69-32.32 200.34-31.52 199.98-30.71 199.37-30.11 198.76-29.52 197.94-29.16 197.13-28.81 196.2-28.81L196.2-28.81Q195.27-28.81 194.45-29.16 193.63-29.52 193.04-30.11 192.44-30.71 192.08-31.52 191.73-32.32 191.73-33.25L191.73-33.25Q191.73-34.16 192.08-34.97 192.44-35.79 193.04-36.39 193.63-36.99 194.45-37.34 195.27-37.7 196.2-37.7L196.2-37.7Q197.13-37.7 197.94-37.34 198.76-36.99 199.37-36.39 199.98-35.79 200.34-34.97 200.69-34.16 200.69-33.25ZM199.54-26.15L199.54 0 192.83 0 192.83-26.15 199.54-26.15ZM211.28-14.94L211.28 0 204.62 0 204.62-26.15 206.23-26.15 208.43-23.61Q210.04-25.07 212.08-25.87 214.12-26.66 216.34-26.66L216.34-26.66Q218.73-26.66 220.85-25.74 222.98-24.83 224.56-23.23 226.15-21.63 227.07-19.49 227.98-17.36 227.98-14.94L227.98-14.94 227.98 0 221.32 0 221.32-14.94Q221.32-15.97 220.93-16.88 220.54-17.8 219.85-18.48 219.17-19.17 218.27-19.56 217.36-19.95 216.34-19.95L216.34-19.95Q215.29-19.95 214.36-19.56 213.43-19.17 212.75-18.48 212.06-17.8 211.67-16.88 211.28-15.97 211.28-14.94L211.28-14.94ZM251.32-13.31L251.32-13.31Q251.32-14.67 250.8-15.95 250.27-17.24 249.37-18.23 248.46-19.21 247.26-19.81 246.05-20.41 244.68-20.41L244.68-20.41Q243.31-20.41 242.1-19.95 240.9-19.48 240-18.58 239.11-17.68 238.6-16.35 238.09-15.01 238.09-13.31L238.09-13.31Q238.09-11.67 238.6-10.36 239.11-9.06 240-8.13 240.9-7.2 242.1-6.7 243.31-6.2 244.68-6.2L244.68-6.2Q246.05-6.2 247.26-6.8 248.46-7.4 249.37-8.39 250.27-9.38 250.8-10.66 251.32-11.94 251.32-13.31ZM258.03-26.1L258.03-3.3Q258.03-0.54 256.98 1.88 255.93 4.3 254.12 6.1 252.3 7.91 249.87 8.96 247.44 10.01 244.68 10.01L244.68 10.01 241.33 9.96 241.33 3.3 244.63 3.34Q246.19 3.34 247.29 2.94 248.39 2.54 249.15 1.84 249.9 1.15 250.36 0.24 250.81-0.66 251.08-1.66L251.08-1.66Q250.69-1.03 249.95-0.62 249.22-0.22 248.33 0.04 247.44 0.29 246.47 0.39 245.51 0.49 244.68 0.49L244.68 0.49Q241.92 0.49 239.49-0.46 237.06-1.42 235.24-3.19 233.42-4.96 232.37-7.52 231.33-10.08 231.33-13.31L231.33-13.31Q231.33-16.26 232.37-18.8 233.42-21.34 235.24-23.19 237.06-25.05 239.49-26.1 241.92-27.15 244.68-27.15L244.68-27.15Q245.95-27.15 247.19-26.83 248.44-26.51 249.61-25.95 250.78-25.39 251.85-24.63 252.91-23.88 253.83-23L253.83-23 256.42-26.1 258.03-26.1ZM293.55-10.96L293.55 0 286.57 0 286.57-10.96Q284.25-11.55 282.31-12.84 280.37-14.14 278.98-15.93 277.58-17.72 276.82-19.91 276.05-22.09 276.05-24.51L276.05-24.51 276.05-35.01 283.05-35.01 283.05-24.51Q283.05-23.07 283.6-21.79 284.15-20.51 285.1-19.56 286.06-18.6 287.34-18.05 288.62-17.5 290.06-17.5L290.06-17.5Q291.5-17.5 292.78-18.05 294.06-18.6 295.02-19.56 295.97-20.51 296.52-21.79 297.07-23.07 297.07-24.51L297.07-24.51 297.07-35.01 304.05-35.01 304.05-24.51Q304.05-22.09 303.28-19.91 302.51-17.72 301.12-15.93 299.73-14.14 297.8-12.84 295.87-11.55 293.55-10.96L293.55-10.96ZM332.37-13.31L332.37-13.31Q332.37-10.38 331.32-7.85 330.27-5.32 328.46-3.48 326.65-1.64 324.23-0.57 321.8 0.49 319.01 0.49L319.01 0.49Q316.25 0.49 313.82-0.57 311.4-1.64 309.58-3.48 307.76-5.32 306.71-7.85 305.66-10.38 305.66-13.31L305.66-13.31Q305.66-16.28 306.71-18.82 307.76-21.36 309.58-23.21 311.4-25.05 313.82-26.1 316.25-27.15 319.01-27.15L319.01-27.15Q321.8-27.15 324.23-26.16 326.65-25.17 328.46-23.35 330.27-21.53 331.32-18.98 332.37-16.43 332.37-13.31ZM325.65-13.31L325.65-13.31Q325.65-14.92 325.13-16.22 324.6-17.53 323.7-18.47 322.8-19.41 321.59-19.91 320.38-20.41 319.01-20.41L319.01-20.41Q317.65-20.41 316.44-19.91 315.23-19.41 314.34-18.47 313.45-17.53 312.93-16.22 312.42-14.92 312.42-13.31L312.42-13.31Q312.42-11.79 312.93-10.5 313.45-9.2 314.34-8.25 315.23-7.3 316.44-6.75 317.65-6.2 319.01-6.2L319.01-6.2Q320.38-6.2 321.59-6.71 322.8-7.23 323.7-8.15 324.6-9.08 325.13-10.4 325.65-11.72 325.65-13.31ZM357.46 0L355.27-3.05Q354.46-2.32 353.54-1.67 352.63-1.03 351.63-0.55 350.63-0.07 349.56 0.21 348.5 0.49 347.4 0.49L347.4 0.49Q344.99 0.49 342.86-0.37 340.74-1.22 339.14-2.8 337.54-4.37 336.63-6.63 335.71-8.89 335.71-11.69L335.71-11.69 335.71-26.15 342.35-26.15 342.35-11.69Q342.35-10.38 342.75-9.34 343.16-8.3 343.84-7.59 344.52-6.88 345.44-6.52 346.35-6.15 347.4-6.15L347.4-6.15Q348.43-6.15 349.34-6.63 350.26-7.1 350.94-7.89 351.63-8.67 352.02-9.66 352.41-10.64 352.41-11.69L352.41-11.69 352.41-26.15 359.07-26.15 359.07 0 357.46 0ZM370.81-14.4L370.81 0 364.15 0 364.15-26.15 365.76-26.15 367.96-23.05Q369.57-24.51 371.62-25.31 373.67-26.1 375.87-26.1L375.87-26.1 381.75-26.1 381.75-19.46 375.87-19.46Q374.82-19.46 373.89-19.07 372.96-18.68 372.28-17.99 371.6-17.31 371.21-16.38 370.81-15.45 370.81-14.4L370.81-14.4ZM414.24-28L414.24 0 407.26 0 407.26-28 396.74-28 396.74-35.01 424.74-35.01 424.74-28 414.24-28ZM434.41-14.94L434.41 0 427.74 0 427.74-36.55 434.41-36.55 434.41-25Q435.6-25.9 436.87-26.28 438.14-26.66 439.46-26.66L439.46-26.66Q441.88-26.66 444-25.74 446.12-24.83 447.7-23.23 449.27-21.63 450.19-19.49 451.1-17.36 451.1-14.94L451.1-14.94 451.1 0 444.39 0 444.39-14.94 444.44-14.94Q444.44-15.97 444.05-16.88 443.66-17.8 442.98-18.48 442.29-19.17 441.39-19.56 440.48-19.95 439.46-19.95L439.46-19.95Q438.41-19.95 437.48-19.56 436.55-19.17 435.87-18.48 435.19-17.8 434.8-16.88 434.41-15.97 434.41-14.94L434.41-14.94ZM481.11-13.31L481.11-13.31Q481.11-10.38 480.06-7.85 479.01-5.32 477.2-3.48 475.39-1.64 472.97-0.57 470.54 0.49 467.75 0.49L467.75 0.49Q464.99 0.49 462.56-0.57 460.14-1.64 458.32-3.48 456.5-5.32 455.45-7.85 454.4-10.38 454.4-13.31L454.4-13.31Q454.4-16.28 455.45-18.82 456.5-21.36 458.32-23.21 460.14-25.05 462.56-26.1 464.99-27.15 467.75-27.15L467.75-27.15Q470.54-27.15 472.97-26.16 475.39-25.17 477.2-23.35 479.01-21.53 480.06-18.98 481.11-16.43 481.11-13.31ZM474.39-13.31L474.39-13.31Q474.39-14.92 473.87-16.22 473.34-17.53 472.44-18.47 471.54-19.41 470.33-19.91 469.12-20.41 467.75-20.41L467.75-20.41Q466.39-20.41 465.18-19.91 463.97-19.41 463.08-18.47 462.19-17.53 461.67-16.22 461.16-14.92 461.16-13.31L461.16-13.31Q461.16-11.79 461.67-10.5 462.19-9.2 463.08-8.25 463.97-7.3 465.18-6.75 466.39-6.2 467.75-6.2L467.75-6.2Q469.12-6.2 470.33-6.71 471.54-7.23 472.44-8.15 473.34-9.08 473.87-10.4 474.39-11.72 474.39-13.31ZM506.2 0L504.01-3.05Q503.2-2.32 502.28-1.67 501.37-1.03 500.37-0.55 499.37-0.07 498.3 0.21 497.24 0.49 496.14 0.49L496.14 0.49Q493.73 0.49 491.6-0.37 489.48-1.22 487.88-2.8 486.28-4.37 485.37-6.63 484.45-8.89 484.45-11.69L484.45-11.69 484.45-26.15 491.09-26.15 491.09-11.69Q491.09-10.38 491.49-9.34 491.9-8.3 492.58-7.59 493.26-6.88 494.18-6.52 495.09-6.15 496.14-6.15L496.14-6.15Q497.17-6.15 498.08-6.63 499-7.1 499.68-7.89 500.37-8.67 500.76-9.66 501.15-10.64 501.15-11.69L501.15-11.69 501.15-26.15 507.81-26.15 507.81 0 506.2 0ZM531.49-13.31L531.49-13.31Q531.49-14.67 530.97-15.95 530.44-17.24 529.54-18.23 528.64-19.21 527.43-19.81 526.22-20.41 524.85-20.41L524.85-20.41Q523.49-20.41 522.28-19.95 521.07-19.48 520.18-18.58 519.29-17.68 518.77-16.35 518.26-15.01 518.26-13.31L518.26-13.31Q518.26-11.67 518.77-10.36 519.29-9.06 520.18-8.13 521.07-7.2 522.28-6.7 523.49-6.2 524.85-6.2L524.85-6.2Q526.22-6.2 527.43-6.8 528.64-7.4 529.54-8.39 530.44-9.38 530.97-10.66 531.49-11.94 531.49-13.31ZM538.21-26.1L538.21-3.3Q538.21-0.54 537.16 1.88 536.11 4.3 534.29 6.1 532.47 7.91 530.04 8.96 527.61 10.01 524.85 10.01L524.85 10.01 521.51 9.96 521.51 3.3 524.8 3.34Q526.37 3.34 527.46 2.94 528.56 2.54 529.32 1.84 530.08 1.15 530.53 0.24 530.98-0.66 531.25-1.66L531.25-1.66Q530.86-1.03 530.13-0.62 529.39-0.22 528.5 0.04 527.61 0.29 526.65 0.39 525.68 0.49 524.85 0.49L524.85 0.49Q522.09 0.49 519.66-0.46 517.24-1.42 515.42-3.19 513.6-4.96 512.55-7.52 511.5-10.08 511.5-13.31L511.5-13.31Q511.5-16.26 512.55-18.8 513.6-21.34 515.42-23.19 517.24-25.05 519.66-26.1 522.09-27.15 524.85-27.15L524.85-27.15Q526.12-27.15 527.37-26.83 528.61-26.51 529.78-25.95 530.96-25.39 532.02-24.63 533.08-23.88 534.01-23L534.01-23 536.6-26.1 538.21-26.1ZM549.95-14.94L549.95 0 543.28 0 543.28-36.55 549.95-36.55 549.95-25Q551.14-25.9 552.41-26.28 553.68-26.66 555-26.66L555-26.66Q557.42-26.66 559.54-25.74 561.67-24.83 563.24-23.23 564.82-21.63 565.73-19.49 566.65-17.36 566.65-14.94L566.65-14.94 566.65 0 559.93 0 559.93-14.94 559.98-14.94Q559.98-15.97 559.59-16.88 559.2-17.8 558.52-18.48 557.83-19.17 556.93-19.56 556.03-19.95 555-19.95L555-19.95Q553.95-19.95 553.02-19.56 552.1-19.17 551.41-18.48 550.73-17.8 550.34-16.88 549.95-15.97 549.95-14.94L549.95-14.94ZM589.2 0L584.15 0Q581.73 0 579.61-0.92 577.48-1.83 575.88-3.43 574.29-5.03 573.37-7.15 572.45-9.28 572.45-11.69L572.45-11.69 572.45-19.46 569.21-19.46 569.21-26.1 572.45-26.1 572.45-36.55 579.1-36.55 579.1-26.1 589.2-26.1 589.2-19.46 579.1-19.46 579.1-11.69Q579.1-10.64 579.49-9.73 579.88-8.81 580.56-8.13 581.24-7.45 582.17-7.04 583.1-6.64 584.15-6.64L584.15-6.64 589.2-6.64 589.2 0ZM607.29 0L607.29 0 592.06 0 592.06-6.64 607.29-6.64Q607.97-6.64 608.46-7.13 608.95-7.62 608.95-8.3L608.95-8.3Q608.95-9.01 608.46-9.23 607.97-9.45 607.29-9.45L607.29-9.45 600.36-9.45Q598.62-9.45 597.11-10.11 595.6-10.77 594.47-11.9 593.35-13.04 592.7-14.55 592.06-16.06 592.06-17.8L592.06-17.8Q592.06-19.53 592.7-21.04 593.35-22.56 594.47-23.68 595.6-24.8 597.11-25.45 598.62-26.1 600.36-26.1L600.36-26.1 613.86-26.1 613.86-19.46 600.36-19.46Q599.67-19.46 599.19-18.97 598.7-18.48 598.7-17.8L598.7-17.8Q598.7-17.09 599.19-16.59 599.67-16.09 600.36-16.09L600.36-16.09 607.29-16.09Q609-16.09 610.51-15.52 612.03-14.94 613.15-13.92 614.27-12.89 614.93-11.45 615.59-10.01 615.59-8.3L615.59-8.3Q615.59-6.57 614.93-5.07 614.27-3.56 613.15-2.43 612.03-1.29 610.51-0.65 609 0 607.29 0Z" opacity="1" transform="matrix(1,0,0,1,0,0)" fill="#000000" class="slogan-text-1" data-fill-palette-color="secondary" id="text-1"></path></svg></g></svg></g></svg></g></svg></g></svg></g><defs></defs></svg><rect width="395.52" height="94.01829466679123" fill="none" stroke="none" visibility="hidden"></rect></g></svg></g></svg>