<svg xmlns="http://www.w3.org/2000/svg" version="1.1" xmlns:xlink="http://www.w3.org/1999/xlink" xmlns:svgjs="http://svgjs.dev/svgjs" width="2000" height="525" viewBox="0 0 2000 525"><g transform="matrix(1,0,0,1,-1.2121212121212466,0.6345436707975409)"><svg viewBox="0 0 396 104" data-background-color="#efefef" preserveAspectRatio="xMidYMid meet" height="525" width="2000" xmlns="http://www.w3.org/2000/svg" xmlns:xlink="http://www.w3.org/1999/xlink"><g id="tight-bounds" transform="matrix(1,0,0,1,0.2400000000000091,-0.12570007954846574)"><svg viewBox="0 0 395.52 104.25140015909693" height="104.25140015909693" width="395.52"><g><svg viewBox="0 0 521.6868505738842 137.50653473128287" height="104.25140015909693" width="395.52"><g transform="matrix(1,0,0,1,126.16685057388419,19.004159286306106)"><svg viewBox="0 0 395.52 99.49821615867066" height="99.49821615867066" width="395.52"><g id="textblocktransform"><svg viewBox="0 0 395.52 99.49821615867066" height="99.49821615867066" width="395.52" id="textblock"><g><svg viewBox="0 0 395.52 55.99662529164722" height="55.99662529164722" width="395.52"><g transform="matrix(1,0,0,1,0,0)"><svg width="395.52" viewBox="3.25 -36.55 261.99 37.04" height="55.99662529164722" data-palette-color="url(#76bb8336-1f95-417a-a13f-d61a18d79a91)"><g class="wordmark-text-0" data-fill-palette-color="primary" id="text-0"><path d="M156.02-35.01L156.02 0 148.52 0 135.02-23.05 135.02 0 128.01 0 128.01-35.01 135.51-35.01 149.01-11.94 149.01-35.01 156.02-35.01ZM184.7-21.46L172.2-6.4Q172.59-6.27 172.98-6.24 173.37-6.2 173.76-6.2L173.76-6.2Q174.74-6.2 175.64-6.47 176.55-6.74 177.34-7.24 178.13-7.74 178.76-8.46 179.38-9.18 179.77-10.06L179.77-10.06 184.65-5.15Q183.72-3.83 182.52-2.78 181.31-1.73 179.9-1 178.5-0.27 176.95 0.11 175.4 0.49 173.76 0.49L173.76 0.49Q171 0.49 168.58-0.54 166.15-1.56 164.33-3.39 162.51-5.22 161.46-7.75 160.41-10.28 160.41-13.31L160.41-13.31Q160.41-16.41 161.46-18.97 162.51-21.53 164.33-23.34 166.15-25.15 168.58-26.15 171-27.15 173.76-27.15L173.76-27.15Q175.4-27.15 176.96-26.76 178.52-26.37 179.93-25.63 181.33-24.9 182.55-23.84 183.77-22.78 184.7-21.46L184.7-21.46ZM167.86-9.84L175.62-20.14Q175.15-20.31 174.7-20.36 174.25-20.41 173.76-20.41L173.76-20.41Q172.4-20.41 171.19-19.91 169.98-19.41 169.09-18.48 168.2-17.55 167.68-16.25 167.17-14.94 167.17-13.31L167.17-13.31Q167.17-12.94 167.21-12.48 167.24-12.01 167.33-11.54 167.42-11.06 167.54-10.62 167.66-10.18 167.86-9.84L167.86-9.84ZM202.54-13.4L212.12 0 203.96 0 198.76-8.01 193.51 0 185.36 0 194.9-13.4 185.36-26.29 193.51-26.29 198.76-18.8 203.96-26.29 212.12-26.29 202.54-13.4ZM235.89 0L233.69-3.05Q232.89-2.32 231.97-1.67 231.06-1.03 230.06-0.55 229.06-0.07 227.99 0.21 226.93 0.49 225.83 0.49L225.83 0.49Q223.42 0.49 221.29-0.37 219.17-1.22 217.57-2.8 215.97-4.37 215.05-6.63 214.14-8.89 214.14-11.69L214.14-11.69 214.14-26.15 220.78-26.15 220.78-11.69Q220.78-10.38 221.18-9.34 221.59-8.3 222.27-7.59 222.95-6.88 223.87-6.52 224.78-6.15 225.83-6.15L225.83-6.15Q226.86-6.15 227.77-6.63 228.69-7.1 229.37-7.89 230.06-8.67 230.45-9.66 230.84-10.64 230.84-11.69L230.84-11.69 230.84-26.15 237.5-26.15 237.5 0 235.89 0ZM256.93 0L256.93 0 241.7 0 241.7-6.64 256.93-6.64Q257.62-6.64 258.11-7.13 258.59-7.62 258.59-8.3L258.59-8.3Q258.59-9.01 258.11-9.23 257.62-9.45 256.93-9.45L256.93-9.45 250-9.45Q248.27-9.45 246.75-10.11 245.24-10.77 244.12-11.9 242.99-13.04 242.35-14.55 241.7-16.06 241.7-17.8L241.7-17.8Q241.7-19.53 242.35-21.04 242.99-22.56 244.12-23.68 245.24-24.8 246.75-25.45 248.27-26.1 250-26.1L250-26.1 263.5-26.1 263.5-19.46 250-19.46Q249.32-19.46 248.83-18.97 248.34-18.48 248.34-17.8L248.34-17.8Q248.34-17.09 248.83-16.59 249.32-16.09 250-16.09L250-16.09 256.93-16.09Q258.64-16.09 260.16-15.52 261.67-14.94 262.79-13.92 263.92-12.89 264.58-11.45 265.24-10.01 265.24-8.3L265.24-8.3Q265.24-6.57 264.58-5.07 263.92-3.56 262.79-2.43 261.67-1.29 260.16-0.65 258.64 0 256.93 0Z" fill="#000000" data-fill-palette-color="secondary"></path></g></svg></g></svg></g><g transform="matrix(1,0,0,1,0,69.21608460399813)"><svg viewBox="0 0 395.52 30.282131554672528" height="30.282131554672528" width="395.52"><g transform="matrix(1,0,0,1,0,0)"><svg width="395.52" viewBox="2.44 -39.11 688.14 52.68" height="30.282131554672528" data-palette-color="#390909"><path d="M32.28-7.52L32.28-3.25Q31.18-2.37 29.74-1.67 28.3-0.98 26.67-0.5 25.05-0.02 23.3 0.23 21.56 0.49 19.87 0.49L19.87 0.49Q16.14 0.49 12.94-0.73 9.74-1.95 7.41-4.21 5.08-6.47 3.76-9.67 2.44-12.87 2.44-16.8L2.44-16.8Q2.44-19.92 3.25-22.6 4.05-25.27 5.49-27.43 6.93-29.59 8.9-31.24 10.86-32.89 13.17-34 15.48-35.11 18.04-35.68 20.61-36.25 23.22-36.25L23.22-36.25Q24.05-36.25 25.18-36.19 26.32-36.13 27.58-35.99 28.83-35.84 30.14-35.61 31.45-35.38 32.64-35.06L32.64-35.06 31.23-28.81 30.74-28.61Q28.64-29.64 26.71-30.03 24.78-30.42 23.24-30.42L23.24-30.42Q20.85-30.42 18.9-29.58 16.94-28.74 15.55-27.19 14.16-25.63 13.4-23.4 12.65-21.17 12.65-18.38L12.65-18.38Q12.65-15.48 13.48-13.15 14.31-10.82 15.88-9.19 17.46-7.57 19.71-6.69 21.97-5.81 24.83-5.81L24.83-5.81Q26.03-5.81 27.06-5.96 28.1-6.1 29.02-6.35 29.93-6.59 30.74-6.9 31.54-7.2 32.28-7.52L32.28-7.52ZM50.54 0.49L50.54 0.49Q47.02 0.49 44.45-0.55 41.87-1.59 40.19-3.34 38.5-5.1 37.67-7.41 36.84-9.72 36.84-12.26L36.84-12.26Q36.84-15.23 37.93-17.81 39.01-20.39 41.03-22.29 43.04-24.19 45.9-25.28 48.75-26.37 52.32-26.37L52.32-26.37Q55.76-26.37 58.34-25.35 60.91-24.34 62.62-22.6 64.33-20.85 65.19-18.53 66.04-16.21 66.04-13.6L66.04-13.6Q66.04-10.55 64.93-7.96 63.82-5.37 61.78-3.49 59.74-1.61 56.88-0.56 54.03 0.49 50.54 0.49ZM51.59-5.27L51.59-5.27Q52.51-5.27 53.33-5.69 54.15-6.1 54.75-7.01 55.35-7.91 55.69-9.29 56.03-10.67 56.03-12.62L56.03-12.62Q56.03-14.43 55.71-15.91 55.4-17.38 54.8-18.42 54.2-19.46 53.31-20.03 52.42-20.61 51.29-20.61L51.29-20.61Q49.32-20.61 48.08-18.77 46.85-16.94 46.85-13.21L46.85-13.21Q46.85-11.28 47.19-9.8 47.53-8.33 48.16-7.31 48.78-6.3 49.65-5.79 50.51-5.27 51.59-5.27ZM71.41 0L71.41-25.88 79.76-25.88 80.88-21.73Q81.71-22.41 82.73-23.23 83.74-24.05 84.91-24.74 86.08-25.44 87.43-25.9 88.77-26.37 90.26-26.37L90.26-26.37Q92.07-26.37 93.57-25.74 95.07-25.12 96.14-23.96 97.22-22.8 97.81-21.17 98.41-19.53 98.41-17.53L98.41-17.53 98.41 0 88.65 0 88.65-16.06Q88.65-17.04 88.38-17.8 88.11-18.55 87.63-19.06 87.16-19.56 86.54-19.81 85.91-20.07 85.23-20.07L85.23-20.07Q84.13-20.07 83.12-19.53 82.1-18.99 81.18-18.26L81.18-18.26 81.18 0 71.41 0ZM105.25 0L105.25-25.88 113.6-25.88 114.72-21.73Q115.55-22.41 116.56-23.23 117.58-24.05 118.75-24.74 119.92-25.44 121.26-25.9 122.61-26.37 124.1-26.37L124.1-26.37Q125.9-26.37 127.4-25.74 128.91-25.12 129.98-23.96 131.05-22.8 131.65-21.17 132.25-19.53 132.25-17.53L132.25-17.53 132.25 0 122.49 0 122.49-16.06Q122.49-17.04 122.22-17.8 121.95-18.55 121.47-19.06 121-19.56 120.37-19.81 119.75-20.07 119.07-20.07L119.07-20.07Q117.97-20.07 116.96-19.53 115.94-18.99 115.01-18.26L115.01-18.26 115.01 0 105.25 0ZM162.57-6.84L162.57-2.88Q161.11-1.86 159.67-1.2 158.23-0.54 156.85-0.17 155.47 0.2 154.14 0.34 152.81 0.49 151.56 0.49L151.56 0.49Q148.22 0.49 145.62-0.35 143.02-1.2 141.24-2.78 139.45-4.37 138.54-6.67 137.62-8.96 137.62-11.89L137.62-11.89Q137.62-15.33 138.83-18.02 140.04-20.7 142.07-22.56 144.09-24.41 146.75-25.39 149.41-26.37 152.34-26.37L152.34-26.37Q154.93-26.37 157.08-25.6 159.23-24.83 160.78-23.33 162.33-21.83 163.18-19.6 164.04-17.38 164.04-14.5L164.04-14.5Q164.04-13.4 163.94-12.65 163.84-11.89 163.75-11.47L163.75-11.47 147.63-11.47Q147.63-9.89 148.18-8.81 148.73-7.74 149.76-7.07 150.78-6.4 152.23-6.1 153.69-5.81 155.49-5.81L155.49-5.81Q156.98-5.81 158.86-6.03 160.74-6.25 162.57-6.84L162.57-6.84ZM147.63-14.5L155.25-14.5Q155.25-16.11 154.98-17.27 154.71-18.43 154.24-19.18 153.76-19.92 153.06-20.26 152.37-20.61 151.54-20.61L151.54-20.61Q149.71-20.61 148.67-19.08 147.63-17.55 147.63-14.5L147.63-14.5ZM189.87-6.84L189.87-2.88Q188.67-1.88 187.52-1.23 186.38-0.59 185.24-0.21 184.11 0.17 182.97 0.33 181.84 0.49 180.66 0.49L180.66 0.49Q177.61 0.49 175.24-0.4 172.88-1.29 171.25-2.91 169.63-4.52 168.79-6.74 167.94-8.96 167.94-11.62L167.94-11.62Q167.94-14.92 169.19-17.63 170.43-20.34 172.6-22.28 174.76-24.22 177.69-25.29 180.62-26.37 183.98-26.37L183.98-26.37Q184.52-26.37 185.22-26.33 185.91-26.29 186.73-26.2 187.55-26.1 188.45-25.93 189.36-25.76 190.31-25.49L190.31-25.49 188.99-19.48 188.55-19.24Q188.18-19.46 187.67-19.7 187.16-19.95 186.55-20.14 185.94-20.34 185.25-20.47 184.57-20.61 183.86-20.61L183.86-20.61Q182.52-20.61 181.43-20.08 180.35-19.56 179.58-18.59 178.81-17.63 178.38-16.24 177.95-14.84 177.95-13.11L177.95-13.11Q177.95-11.13 178.49-9.75 179.03-8.37 179.98-7.5 180.93-6.62 182.28-6.21 183.62-5.81 185.23-5.81L185.23-5.81Q185.77-5.81 186.28-5.86 186.79-5.91 187.34-6.03 187.89-6.15 188.5-6.35 189.11-6.54 189.87-6.84L189.87-6.84ZM197.56-9.18L197.56-20.12 192.38-20.12 192.97-24.12Q194.29-24.63 195.24-25.07 196.19-25.51 196.92-25.99 197.66-26.46 198.22-27.03 198.78-27.59 199.32-28.34 199.85-29.1 200.43-30.09 201-31.08 201.76-32.42L201.76-32.42 206.64-32.42 206.64-25.88 215.72-25.88 214.45-20.12 207.32-20.12 207.32-10.21Q207.32-7.76 208.56-6.79 209.79-5.81 212.18-5.81L212.18-5.81Q213.04-5.81 213.95-5.94 214.87-6.08 215.75-6.45L215.75-6.45 215.75-2.49Q213.72-0.95 211.23-0.23 208.74 0.49 206.3 0.49L206.3 0.49Q203.86 0.49 202.19-0.2 200.51-0.88 199.49-2.14 198.46-3.39 198.01-5.18 197.56-6.96 197.56-9.18L197.56-9.18ZM221.12 0L221.12-25.88 230.88-25.88 230.88 0 221.12 0ZM225.85-29.44L225.85-29.44Q224.61-29.44 223.61-29.8 222.61-30.15 221.9-30.77 221.19-31.4 220.81-32.23 220.43-33.06 220.43-34.01L220.43-34.01Q220.43-34.99 220.85-35.86 221.26-36.74 222.02-37.38 222.78-38.01 223.83-38.39 224.88-38.77 226.15-38.77L226.15-38.77Q227.39-38.77 228.39-38.42 229.39-38.06 230.1-37.44 230.81-36.82 231.19-35.99 231.57-35.16 231.57-34.2L231.57-34.2Q231.57-33.2 231.15-32.34 230.74-31.47 229.98-30.83 229.22-30.2 228.17-29.82 227.12-29.44 225.85-29.44ZM237.72 0L237.72-25.88 246.07-25.88 247.19-21.73Q248.02-22.41 249.04-23.23 250.05-24.05 251.22-24.74 252.39-25.44 253.74-25.9 255.08-26.37 256.57-26.37L256.57-26.37Q258.37-26.37 259.88-25.74 261.38-25.12 262.45-23.96 263.53-22.8 264.12-21.17 264.72-19.53 264.72-17.53L264.72-17.53 264.72 0 254.96 0 254.96-16.06Q254.96-17.04 254.69-17.8 254.42-18.55 253.94-19.06 253.47-19.56 252.84-19.81 252.22-20.07 251.54-20.07L251.54-20.07Q250.44-20.07 249.43-19.53 248.41-18.99 247.49-18.26L247.49-18.26 247.49 0 237.72 0ZM275.22 2.2L275.22 2.2Q272.97 1.42 271.88 0.31 270.78-0.81 270.78-2.05L270.78-2.05Q270.78-2.93 271.29-3.66 271.8-4.39 272.63-5.04 273.46-5.69 274.51-6.25 275.56-6.81 276.64-7.37L276.64-7.37Q274.66-8.03 273.36-9.02 272.07-10.01 271.31-11.17 270.56-12.33 270.25-13.55 269.95-14.77 269.95-15.92L269.95-15.92Q269.95-18.21 270.97-20.13 272-22.05 273.79-23.44 275.59-24.83 278.05-25.6 280.52-26.37 283.4-26.37L283.4-26.37Q285.42-26.37 287.39-25.96 289.36-25.56 290.75-24.71L290.75-24.71Q291.11-24.9 291.53-25.11 291.94-25.32 292.53-25.49 293.12-25.66 293.9-25.77 294.68-25.88 295.78-25.88L295.78-25.88 299.24-25.88 297.97-20.12 294.21-20.12Q294.51-19.48 294.73-18.75 294.95-18.02 294.95-16.97L294.95-16.97Q294.95-14.77 293.88-12.93 292.82-11.08 291.04-9.75 289.26-8.42 286.91-7.68 284.57-6.93 282.01-6.93L282.01-6.93 281.13-6.93Q280.91-6.81 280.63-6.63 280.35-6.45 280.11-6.21 279.88-5.98 279.72-5.69 279.57-5.4 279.57-5.05L279.57-5.05Q279.57-4.42 280.13-3.99 280.69-3.56 281.76-3.56L281.76-3.56 287.43-3.56Q289.18-3.56 290.98-3.23 292.77-2.91 294.24-2.14 295.7-1.37 296.62-0.13 297.53 1.1 297.53 2.91L297.53 2.91Q297.53 4.71 296.51 6.6 295.48 8.5 293.41 10.05 291.33 11.6 288.18 12.59 285.03 13.57 280.76 13.57L280.76 13.57Q278.27 13.57 276.14 13.21 274 12.84 272.44 12.13 270.87 11.43 270 10.4 269.12 9.38 269.12 8.08L269.12 8.08Q269.12 7.06 269.64 6.24 270.17 5.42 271.02 4.71 271.88 4 272.97 3.39 274.07 2.78 275.22 2.2ZM278.54-16.77L278.54-16.77Q278.54-15.72 278.88-14.88 279.22-14.04 279.8-13.44 280.37-12.84 281.13-12.52 281.88-12.21 282.74-12.21L282.74-12.21Q283.54-12.21 284.27-12.5 284.99-12.79 285.52-13.35 286.06-13.92 286.38-14.72 286.69-15.53 286.69-16.53L286.69-16.53Q286.69-17.58 286.35-18.42 286.01-19.26 285.45-19.86 284.89-20.46 284.12-20.78 283.35-21.09 282.52-21.09L282.52-21.09Q281.71-21.09 280.99-20.8 280.27-20.51 279.72-19.95 279.17-19.38 278.86-18.58 278.54-17.77 278.54-16.77ZM285.13 2.73L279.61 2.73Q278.93 3.27 278.42 3.86 277.91 4.44 277.91 5.22L277.91 5.22Q277.91 6.37 279.16 7.09 280.42 7.81 282.86 7.81L282.86 7.81Q284.35 7.81 285.45 7.54 286.55 7.28 287.28 6.84 288.01 6.4 288.38 5.85 288.75 5.3 288.75 4.76L288.75 4.76Q288.75 3.91 287.85 3.32 286.96 2.73 285.13 2.73L285.13 2.73ZM321.29-15.23L309.25-35.77 320.61-35.77 327.49-21.8 334.4-35.77 343.21-35.77 331.2-15.53 331.2 0 321.29 0 321.29-15.23ZM355.1 0.49L355.1 0.49Q351.59 0.49 349.01-0.55 346.44-1.59 344.75-3.34 343.07-5.1 342.24-7.41 341.41-9.72 341.41-12.26L341.41-12.26Q341.41-15.23 342.49-17.81 343.58-20.39 345.59-22.29 347.61-24.19 350.46-25.28 353.32-26.37 356.88-26.37L356.88-26.37Q360.33-26.37 362.9-25.35 365.48-24.34 367.19-22.6 368.9-20.85 369.75-18.53 370.61-16.21 370.61-13.6L370.61-13.6Q370.61-10.55 369.49-7.96 368.38-5.37 366.35-3.49 364.31-1.61 361.45-0.56 358.59 0.49 355.1 0.49ZM356.15-5.27L356.15-5.27Q357.08-5.27 357.9-5.69 358.72-6.1 359.31-7.01 359.91-7.91 360.25-9.29 360.6-10.67 360.6-12.62L360.6-12.62Q360.6-14.43 360.28-15.91 359.96-17.38 359.36-18.42 358.76-19.46 357.87-20.03 356.98-20.61 355.86-20.61L355.86-20.61Q353.88-20.61 352.65-18.77 351.42-16.94 351.42-13.21L351.42-13.21Q351.42-11.28 351.76-9.8 352.1-8.33 352.72-7.31 353.34-6.3 354.21-5.79 355.08-5.27 356.15-5.27ZM375.98-8.4L375.98-25.88 385.74-25.88 385.74-9.81Q385.74-7.93 386.63-6.87 387.52-5.81 388.92-5.81L388.92-5.81Q389.87-5.81 390.78-6.32 391.7-6.84 392.63-7.62L392.63-7.62 392.63-25.88 402.39-25.88 402.39 0 394.04 0 392.92-4.15Q392.04-3.37 391.03-2.55 390.01-1.73 388.89-1.06 387.77-0.39 386.55 0.05 385.33 0.49 384.03 0.49L384.03 0.49Q382.59 0.49 381.16-0.04 379.74-0.56 378.58-1.65 377.42-2.73 376.7-4.41 375.98-6.08 375.98-8.4L375.98-8.4ZM409.23 0L409.23-25.88 417.58-25.88 418.7-18.36Q419.12-19.12 419.53-19.86 419.95-20.61 420.3-21.23 420.65-21.85 420.91-22.3 421.17-22.75 421.24-22.9L421.24-22.9Q421.7-23.66 422.25-24.29 422.8-24.93 423.5-25.39 424.19-25.85 425.06-26.11 425.93-26.37 427.03-26.37L427.03-26.37Q427.73-26.37 428.65-26.17 429.57-25.98 430.37-25.56L430.37-25.56 429.3-16.85Q429.05-16.89 428.65-16.93 428.25-16.97 427.78-16.99 427.32-17.02 426.88-17.03 426.44-17.04 426.12-17.04L426.12-17.04Q425.05-17.04 424-16.89 422.95-16.75 422.01-16.47 421.07-16.19 420.29-15.78 419.51-15.38 418.99-14.89L418.99-14.89 418.99 0 409.23 0ZM463.57-29.93L463.57 0 453.66 0 453.66-29.93 442.82-29.93 443.85-35.77 474.44-35.77 473.41-29.93 463.57-29.93ZM479.32 0L479.32-39.11 489.09-39.11 489.09-21.78Q490.09-22.61 491.15-23.44 492.21-24.27 493.36-24.91 494.51-25.56 495.76-25.96 497.02-26.37 498.41-26.37L498.41-26.37Q500.12-26.37 501.57-25.74 503.03-25.12 504.09-23.96 505.15-22.8 505.74-21.17 506.32-19.53 506.32-17.53L506.32-17.53 506.32 0 496.56 0 496.56-16.06Q496.56-17.04 496.29-17.79 496.02-18.53 495.56-19.04 495.09-19.56 494.47-19.81 493.85-20.07 493.14-20.07L493.14-20.07Q492.07-20.07 491.05-19.56 490.04-19.04 489.09-18.26L489.09-18.26 489.09 0 479.32 0ZM525.39 0.49L525.39 0.49Q521.88 0.49 519.3-0.55 516.72-1.59 515.04-3.34 513.35-5.1 512.52-7.41 511.69-9.72 511.69-12.26L511.69-12.26Q511.69-15.23 512.78-17.81 513.87-20.39 515.88-22.29 517.9-24.19 520.75-25.28 523.61-26.37 527.17-26.37L527.17-26.37Q530.62-26.37 533.19-25.35 535.77-24.34 537.48-22.6 539.18-20.85 540.04-18.53 540.89-16.21 540.89-13.6L540.89-13.6Q540.89-10.55 539.78-7.96 538.67-5.37 536.63-3.49 534.59-1.61 531.74-0.56 528.88 0.49 525.39 0.49ZM526.44-5.27L526.44-5.27Q527.37-5.27 528.19-5.69 529-6.1 529.6-7.01 530.2-7.91 530.54-9.29 530.88-10.67 530.88-12.62L530.88-12.62Q530.88-14.43 530.57-15.91 530.25-17.38 529.65-18.42 529.05-19.46 528.16-20.03 527.27-20.61 526.15-20.61L526.15-20.61Q524.17-20.61 522.94-18.77 521.7-16.94 521.7-13.21L521.7-13.21Q521.7-11.28 522.05-9.8 522.39-8.33 523.01-7.31 523.63-6.3 524.5-5.79 525.37-5.27 526.44-5.27ZM546.26-8.4L546.26-25.88 556.03-25.88 556.03-9.81Q556.03-7.93 556.92-6.87 557.81-5.81 559.2-5.81L559.2-5.81Q560.16-5.81 561.07-6.32 561.99-6.84 562.92-7.62L562.92-7.62 562.92-25.88 572.68-25.88 572.68 0 564.33 0 563.21-4.15Q562.33-3.37 561.32-2.55 560.3-1.73 559.18-1.06 558.06-0.39 556.84 0.05 555.62 0.49 554.32 0.49L554.32 0.49Q552.88 0.49 551.45-0.04 550.02-0.56 548.86-1.65 547.71-2.73 546.98-4.41 546.26-6.08 546.26-8.4L546.26-8.4ZM583.18 2.2L583.18 2.2Q580.93 1.42 579.83 0.31 578.74-0.81 578.74-2.05L578.74-2.05Q578.74-2.93 579.25-3.66 579.76-4.39 580.59-5.04 581.42-5.69 582.47-6.25 583.52-6.81 584.59-7.37L584.59-7.37Q582.62-8.03 581.32-9.02 580.03-10.01 579.27-11.17 578.52-12.33 578.21-13.55 577.91-14.77 577.91-15.92L577.91-15.92Q577.91-18.21 578.93-20.13 579.96-22.05 581.75-23.44 583.54-24.83 586.01-25.6 588.48-26.37 591.36-26.37L591.36-26.37Q593.38-26.37 595.35-25.96 597.31-25.56 598.71-24.71L598.71-24.71Q599.07-24.9 599.49-25.11 599.9-25.32 600.49-25.49 601.07-25.66 601.86-25.77 602.64-25.88 603.74-25.88L603.74-25.88 607.2-25.88 605.93-20.12 602.17-20.12Q602.47-19.48 602.69-18.75 602.91-18.02 602.91-16.97L602.91-16.97Q602.91-14.77 601.84-12.93 600.78-11.08 599-9.75 597.22-8.42 594.87-7.68 592.53-6.93 589.97-6.93L589.97-6.93 589.09-6.93Q588.87-6.81 588.59-6.63 588.31-6.45 588.07-6.21 587.84-5.98 587.68-5.69 587.52-5.4 587.52-5.05L587.52-5.05Q587.52-4.42 588.09-3.99 588.65-3.56 589.72-3.56L589.72-3.56 595.39-3.56Q597.14-3.56 598.94-3.23 600.73-2.91 602.2-2.14 603.66-1.37 604.58-0.13 605.49 1.1 605.49 2.91L605.49 2.91Q605.49 4.71 604.47 6.6 603.44 8.5 601.37 10.05 599.29 11.6 596.14 12.59 592.99 13.57 588.72 13.57L588.72 13.57Q586.23 13.57 584.09 13.21 581.96 12.84 580.4 12.13 578.83 11.43 577.95 10.4 577.08 9.38 577.08 8.08L577.08 8.08Q577.08 7.06 577.6 6.24 578.13 5.42 578.98 4.71 579.83 4 580.93 3.39 582.03 2.78 583.18 2.2ZM586.5-16.77L586.5-16.77Q586.5-15.72 586.84-14.88 587.18-14.04 587.76-13.44 588.33-12.84 589.09-12.52 589.84-12.21 590.7-12.21L590.7-12.21Q591.5-12.21 592.22-12.5 592.94-12.79 593.48-13.35 594.02-13.92 594.34-14.72 594.65-15.53 594.65-16.53L594.65-16.53Q594.65-17.58 594.31-18.42 593.97-19.26 593.41-19.86 592.85-20.46 592.08-20.78 591.31-21.09 590.48-21.09L590.48-21.09Q589.67-21.09 588.95-20.8 588.23-20.51 587.68-19.95 587.13-19.38 586.82-18.58 586.5-17.77 586.5-16.77ZM593.09 2.73L587.57 2.73Q586.89 3.27 586.38 3.86 585.86 4.44 585.86 5.22L585.86 5.22Q585.86 6.37 587.12 7.09 588.38 7.81 590.82 7.81L590.82 7.81Q592.31 7.81 593.41 7.54 594.51 7.28 595.24 6.84 595.97 6.4 596.34 5.85 596.7 5.3 596.7 4.76L596.7 4.76Q596.7 3.91 595.81 3.32 594.92 2.73 593.09 2.73L593.09 2.73ZM610.62 0L610.62-39.11 620.39-39.11 620.39-21.78Q621.39-22.61 622.45-23.44 623.51-24.27 624.66-24.91 625.81-25.56 627.06-25.96 628.32-26.37 629.71-26.37L629.71-26.37Q631.42-26.37 632.87-25.74 634.33-25.12 635.39-23.96 636.45-22.8 637.04-21.17 637.62-19.53 637.62-17.53L637.62-17.53 637.62 0 627.86 0 627.86-16.06Q627.86-17.04 627.59-17.79 627.32-18.53 626.86-19.04 626.39-19.56 625.77-19.81 625.15-20.07 624.44-20.07L624.44-20.07Q623.36-20.07 622.35-19.56 621.34-19.04 620.39-18.26L620.39-18.26 620.39 0 610.62 0ZM646.41-9.18L646.41-20.12 641.24-20.12 641.82-24.12Q643.14-24.63 644.09-25.07 645.04-25.51 645.78-25.99 646.51-26.46 647.07-27.03 647.63-27.59 648.17-28.34 648.71-29.1 649.28-30.09 649.85-31.08 650.61-32.42L650.61-32.42 655.49-32.42 655.49-25.88 664.58-25.88 663.31-20.12 656.18-20.12 656.18-10.21Q656.18-7.76 657.41-6.79 658.64-5.81 661.04-5.81L661.04-5.81Q661.89-5.81 662.81-5.94 663.72-6.08 664.6-6.45L664.6-6.45 664.6-2.49Q662.57-0.95 660.08-0.23 657.59 0.49 655.15 0.49L655.15 0.49Q652.71 0.49 651.04-0.2 649.37-0.88 648.34-2.14 647.31-3.39 646.86-5.18 646.41-6.96 646.41-9.18L646.41-9.18ZM668.26-1.37L669.58-7.42 670.02-7.67Q671.04-7.1 672.13-6.67 673.22-6.23 674.28-5.92 675.34-5.62 676.37-5.44 677.39-5.27 678.32-5.27L678.32-5.27Q679.3-5.27 679.96-5.46 680.62-5.64 681.02-5.93 681.42-6.23 681.6-6.6 681.79-6.98 681.79-7.37L681.79-7.37Q681.79-8.11 681.24-8.56 680.69-9.01 679.8-9.33 678.91-9.64 677.77-9.89 676.64-10.13 675.44-10.47 674.24-10.82 673.11-11.32 671.97-11.82 671.08-12.61 670.19-13.4 669.64-14.59 669.09-15.77 669.09-17.48L669.09-17.48Q669.09-19.48 669.9-21.12 670.7-22.75 672.31-23.93 673.93-25.1 676.33-25.73 678.74-26.37 681.91-26.37L681.91-26.37Q682.74-26.37 683.75-26.32 684.77-26.27 685.78-26.17 686.79-26.07 687.74-25.92 688.7-25.76 689.4-25.54L689.4-25.54 688.09-19.48 687.65-19.24Q685.77-19.97 684.07-20.29 682.37-20.61 681.18-20.61L681.18-20.61Q680.22-20.61 679.59-20.43 678.96-20.26 678.58-19.97 678.2-19.68 678.04-19.32 677.88-18.97 677.88-18.6L677.88-18.6Q677.88-17.82 678.43-17.36 678.98-16.89 679.87-16.58 680.76-16.26 681.9-16.02 683.03-15.77 684.23-15.45 685.42-15.14 686.56-14.67 687.7-14.21 688.59-13.43 689.48-12.65 690.03-11.49 690.58-10.33 690.58-8.64L690.58-8.64Q690.58-6.86 689.89-5.21 689.21-3.56 687.72-2.29 686.23-1.03 683.9-0.27 681.57 0.49 678.27 0.49L678.27 0.49Q677.05 0.49 675.74 0.38 674.44 0.27 673.13 0.04 671.83-0.2 670.58-0.54 669.34-0.88 668.26-1.37L668.26-1.37Z" opacity="1" transform="matrix(1,0,0,1,0,0)" fill="#000000" class="slogan-text-1" data-fill-palette-color="secondary" id="text-1"></path></svg></g></svg></g></svg></g></svg></g><g><svg viewBox="0 0 112.94739126153328 137.50653473128287" height="137.50653473128287" width="112.94739126153328"><g><svg xmlns="http://www.w3.org/2000/svg" xmlns:xlink="http://www.w3.org/1999/xlink" version="1.1" x="0" y="0" viewBox="2.225800210941924 0 19.549237549165987 23.799999999999997" style="enable-background:new 0 0 24 24;" xml:space="preserve" height="137.50653473128287" width="112.94739126153328" class="icon-icon-0" data-fill-palette-color="accent" id="icon-0"><g fill="#9b4d4d" data-fill-palette-color="accent"><path d="M21.512 12.394c0 0-1.322-2.154-1.549-2.646-0.228-0.491-0.152-1.209 0-1.738 0.15-0.529 0-1.285 0-1.285C18.64 0.907 13.501 0 10.969 0S3.563 1.02 2.467 6.575c-1.082 5.485 1.765 8.323 2.834 10.088 0.443 0.732 0.283 2.79 0.043 4.063l8.433 3.074c0.113-0.588 0.178-1.066 0.178-1.431 0-2.91 2.154-2.646 4.119-2.759s1.983-0.699 1.965-1.247c-0.02-0.548 0.151-0.907 0.51-1.454 0.359-0.549-0.207-0.813-0.207-0.813 0.642-0.039 0.227-0.756 0.227-0.756s-0.604-1.135 0.566-1.398C22.306 13.679 21.512 12.394 21.512 12.394zM10.251 13.792C3.072 14.17 3.563 8.2 3.563 8.2c0.643-6.311 5.744-6.727 5.744-6.727 8.086-0.906 9.22 4.043 9.446 5.895C18.935 8.849 17.431 13.414 10.251 13.792z" fill="#000000" data-fill-palette-color="accent"></path><path d="M12.297 7.397c-0.016-0.111-0.102-0.206-0.219-0.226-0.038-0.007-0.075-0.006-0.11 0.003l-0.264 0.042c-0.065-0.419-0.211-0.814-0.425-1.168l0.229-0.139c0.034-0.017 0.063-0.039 0.086-0.068 0.077-0.091 0.083-0.219 0.024-0.313-0.185-0.255-0.404-0.492-0.655-0.703-0.251-0.212-0.523-0.385-0.806-0.522-0.105-0.041-0.229-0.016-0.305 0.076C9.827 4.407 9.809 4.441 9.799 4.475L9.703 4.722C9.512 4.648 9.311 4.591 9.102 4.554 8.893 4.517 8.684 4.502 8.479 4.505L8.473 4.241c0.002-0.036-0.002-0.073-0.015-0.109C8.417 4.02 8.312 3.954 8.199 3.956 7.884 3.988 7.569 4.058 7.261 4.17 6.952 4.281 6.666 4.43 6.404 4.606c-0.087 0.07-0.126 0.191-0.085 0.303 0.013 0.036 0.032 0.068 0.057 0.094l0.169 0.209C6.223 5.471 5.95 5.792 5.746 6.164l-0.235-0.13C5.48 6.013 5.447 5.999 5.41 5.992 5.292 5.971 5.179 6.031 5.126 6.129 4.997 6.417 4.902 6.725 4.844 7.048c-0.057 0.324-0.073 0.646-0.05 0.959 0.016 0.112 0.103 0.206 0.22 0.227C5.051 8.24 5.088 8.239 5.123 8.23l0.265-0.042c0.064 0.419 0.21 0.815 0.425 1.168l-0.23 0.138C5.55 9.512 5.521 9.534 5.497 9.563 5.42 9.654 5.415 9.782 5.473 9.877c0.185 0.254 0.403 0.492 0.655 0.703 0.25 0.211 0.522 0.384 0.805 0.522 0.105 0.042 0.229 0.015 0.306-0.077 0.024-0.03 0.042-0.063 0.052-0.097l0.096-0.247c0.191 0.076 0.392 0.132 0.602 0.169 0.21 0.037 0.418 0.053 0.623 0.047l0.005 0.265c-0.001 0.037 0.002 0.075 0.016 0.109 0.04 0.112 0.147 0.179 0.26 0.177 0.313-0.032 0.627-0.102 0.937-0.215 0.309-0.112 0.595-0.26 0.856-0.436 0.088-0.069 0.127-0.191 0.085-0.303-0.013-0.036-0.033-0.066-0.058-0.094l-0.167-0.208c0.322-0.259 0.596-0.58 0.8-0.951l0.234 0.129c0.03 0.02 0.064 0.034 0.103 0.041 0.116 0.021 0.229-0.038 0.283-0.137 0.127-0.287 0.223-0.595 0.28-0.918 0.058-0.325 0.073-0.647 0.051-0.961V7.397zM10.289 8.011c-0.17 0.96-1.09 1.605-2.051 1.435-0.961-0.17-1.605-1.09-1.436-2.051s1.091-1.606 2.052-1.437C9.814 6.128 10.458 7.051 10.289 8.011z" fill="#000000" data-fill-palette-color="accent"></path><polygon points="6.934,11.104 6.933,11.103 6.933,11.103  " fill="#000000" data-fill-palette-color="accent"></polygon><polygon points="8.894,11.45 8.893,11.449 8.892,11.449  " fill="#000000" data-fill-palette-color="accent"></polygon><circle cx="8.545" cy="7.702" r="1.0" fill="#000000" data-fill-palette-color="accent"></circle><path d="M16.252 4.29c-0.039-0.049-0.107-0.069-0.17-0.047-0.021 0.008-0.037 0.019-0.052 0.034l-0.18 0.146c-0.068-0.083-0.146-0.164-0.233-0.236-0.088-0.073-0.181-0.133-0.276-0.185l0.108-0.204c0.012-0.018 0.019-0.036 0.022-0.058 0.012-0.064-0.022-0.128-0.078-0.157-0.161-0.07-0.334-0.123-0.515-0.153-0.182-0.029-0.361-0.037-0.536-0.021-0.063 0.009-0.114 0.057-0.126 0.124-0.003 0.021-0.002 0.042 0.003 0.06l0.038 0.23c-0.218 0.035-0.428 0.113-0.62 0.232l-0.123-0.198c-0.009-0.018-0.021-0.034-0.037-0.048-0.053-0.043-0.122-0.045-0.177-0.011h0.001c-0.142 0.104-0.272 0.228-0.39 0.37-0.117 0.142-0.213 0.295-0.288 0.453-0.022 0.059-0.005 0.126 0.046 0.169 0.016 0.013 0.033 0.024 0.054 0.028l0.216 0.083c-0.077 0.21-0.114 0.431-0.107 0.651l-0.231 0.006c-0.02 0-0.04 0.002-0.061 0.009-0.062 0.024-0.1 0.084-0.096 0.147 0.018 0.175 0.061 0.35 0.124 0.522 0.064 0.172 0.149 0.332 0.248 0.476 0.04 0.049 0.108 0.07 0.171 0.046 0.018-0.008 0.036-0.019 0.05-0.033l0.179-0.146c0.069 0.084 0.147 0.163 0.235 0.235 0.088 0.072 0.181 0.134 0.275 0.185L13.62 7.205c-0.011 0.017-0.018 0.038-0.021 0.057C13.587 7.328 13.62 7.39 13.676 7.42c0.161 0.069 0.334 0.123 0.516 0.152 0.181 0.029 0.361 0.038 0.537 0.022 0.062-0.009 0.113-0.057 0.125-0.123 0.003-0.021 0.001-0.042-0.005-0.062l-0.037-0.228c0.217-0.036 0.429-0.113 0.62-0.23l0.121 0.195c0.009 0.02 0.023 0.035 0.039 0.048 0.051 0.042 0.121 0.046 0.174 0.011v0.001c0.142-0.104 0.273-0.228 0.391-0.369 0.117-0.143 0.212-0.295 0.286-0.455 0.023-0.058 0.008-0.127-0.044-0.169-0.016-0.013-0.034-0.022-0.055-0.029l-0.217-0.08c0.08-0.213 0.115-0.435 0.107-0.655l0.233-0.008c0.021 0.002 0.041 0 0.061-0.008 0.063-0.023 0.101-0.084 0.098-0.147-0.019-0.173-0.062-0.35-0.126-0.521C16.436 4.593 16.352 4.434 16.252 4.29zM15.335 6.162c-0.363 0.442-1.017 0.504-1.459 0.14-0.442-0.364-0.508-1.017-0.144-1.458 0.364-0.443 1.019-0.506 1.461-0.142S15.7 5.72 15.335 6.162z" fill="#000000" data-fill-palette-color="accent"></path><path d="M15.618 9.177c-0.034-0.043-0.093-0.061-0.146-0.041-0.018 0.006-0.031 0.015-0.044 0.029l-0.154 0.125c-0.059-0.072-0.126-0.141-0.2-0.203-0.076-0.062-0.155-0.114-0.237-0.158l0.093-0.176c0.01-0.015 0.017-0.03 0.02-0.049 0.009-0.056-0.02-0.111-0.068-0.135-0.138-0.061-0.285-0.105-0.44-0.132-0.156-0.025-0.312-0.031-0.461-0.018-0.054 0.007-0.098 0.049-0.107 0.106-0.003 0.018-0.002 0.036 0.002 0.051l0.032 0.198c-0.188 0.03-0.367 0.097-0.531 0.2l-0.105-0.17c-0.009-0.016-0.02-0.03-0.033-0.041-0.045-0.037-0.105-0.039-0.151-0.01v0c-0.12 0.089-0.233 0.195-0.334 0.317-0.1 0.122-0.183 0.253-0.247 0.39-0.02 0.05-0.005 0.108 0.04 0.145 0.014 0.011 0.028 0.021 0.046 0.024l0.186 0.071c-0.067 0.18-0.098 0.37-0.092 0.559l-0.199 0.006c-0.017 0-0.034 0.001-0.052 0.007-0.054 0.021-0.085 0.072-0.082 0.126 0.015 0.149 0.051 0.3 0.106 0.448 0.055 0.148 0.128 0.284 0.213 0.409 0.035 0.042 0.093 0.06 0.146 0.04 0.017-0.007 0.032-0.017 0.044-0.029l0.153-0.125c0.06 0.071 0.126 0.14 0.202 0.202 0.075 0.062 0.155 0.115 0.236 0.159l-0.093 0.175c-0.01 0.015-0.016 0.032-0.019 0.049-0.01 0.057 0.019 0.11 0.065 0.136 0.14 0.059 0.287 0.105 0.443 0.13 0.156 0.024 0.311 0.032 0.46 0.019 0.054-0.007 0.099-0.049 0.107-0.105 0.004-0.019 0.002-0.036-0.003-0.053l-0.031-0.196c0.186-0.03 0.367-0.097 0.531-0.197l0.104 0.167c0.008 0.018 0.021 0.03 0.034 0.042 0.043 0.036 0.104 0.039 0.148 0.01 0.122-0.089 0.235-0.195 0.335-0.316 0.102-0.122 0.184-0.253 0.246-0.39 0.021-0.05 0.007-0.11-0.037-0.146-0.014-0.011-0.029-0.019-0.047-0.024l-0.187-0.068c0.068-0.183 0.1-0.374 0.093-0.563l0.199-0.006c0.019 0.001 0.036 0 0.053-0.007 0.054-0.02 0.086-0.072 0.084-0.126-0.017-0.149-0.053-0.3-0.108-0.448C15.776 9.437 15.703 9.3 15.618 9.177zM14.831 10.784c-0.313 0.379-0.873 0.433-1.253 0.121-0.381-0.313-0.436-0.874-0.123-1.253 0.313-0.381 0.874-0.436 1.255-0.122C15.089 9.842 15.144 10.404 14.831 10.784z" fill="#000000" data-fill-palette-color="accent"></path><polygon points="15.201,11.68 15.2,11.68 15.2,11.681  " fill="#000000" data-fill-palette-color="accent"></polygon></g></svg></g></svg></g></svg></g><defs></defs><mask id="79236227-c417-467d-9eed-1ea0e94400ff"><g id="SvgjsG1056"><svg viewBox="0 0 395.52 104.25140015909693" height="104.25140015909693" width="395.52"><g><svg viewBox="0 0 521.6868505738842 137.50653473128287" height="104.25140015909693" width="395.52"><g transform="matrix(1,0,0,1,126.16685057388419,19.004159286306106)"><svg viewBox="0 0 395.52 99.49821615867066" height="99.49821615867066" width="395.52"><g id="SvgjsG1055"><svg viewBox="0 0 395.52 99.49821615867066" height="99.49821615867066" width="395.52" id="SvgjsSvg1054"><g><svg viewBox="0 0 395.52 55.99662529164722" height="55.99662529164722" width="395.52"><g transform="matrix(1,0,0,1,0,0)"><svg width="395.52" viewBox="3.25 -36.55 261.99 37.04" height="55.99662529164722" data-palette-color="url(#76bb8336-1f95-417a-a13f-d61a18d79a91)"><g class="wordmark-text-0" data-fill-palette-color="primary" id="SvgjsG1053"><path d="M31.25-35.01L31.25 0 23.75 0 10.25-23.05 10.25 0 3.25 0 3.25-35.01 10.74-35.01 24.24-11.94 24.24-35.01 31.25-35.01ZM62.3-13.31L62.3-13.31Q62.3-10.38 61.25-7.85 60.2-5.32 58.4-3.48 56.59-1.64 54.16-0.57 51.73 0.49 48.95 0.49L48.95 0.49Q46.19 0.49 43.76-0.57 41.33-1.64 39.51-3.48 37.69-5.32 36.64-7.85 35.59-10.38 35.59-13.31L35.59-13.31Q35.59-16.28 36.64-18.82 37.69-21.36 39.51-23.21 41.33-25.05 43.76-26.1 46.19-27.15 48.95-27.15L48.95-27.15Q51.73-27.15 54.16-26.16 56.59-25.17 58.4-23.35 60.2-21.53 61.25-18.98 62.3-16.43 62.3-13.31ZM55.59-13.31L55.59-13.31Q55.59-14.92 55.06-16.22 54.54-17.53 53.64-18.47 52.73-19.41 51.52-19.91 50.31-20.41 48.95-20.41L48.95-20.41Q47.58-20.41 46.37-19.91 45.16-19.41 44.27-18.47 43.38-17.53 42.87-16.22 42.36-14.92 42.36-13.31L42.36-13.31Q42.36-11.79 42.87-10.5 43.38-9.2 44.27-8.25 45.16-7.3 46.37-6.75 47.58-6.2 48.95-6.2L48.95-6.2Q50.31-6.2 51.52-6.71 52.73-7.23 53.64-8.15 54.54-9.08 55.06-10.4 55.59-11.72 55.59-13.31ZM84.15 0L79.1 0Q76.68 0 74.56-0.92 72.43-1.83 70.83-3.43 69.23-5.03 68.32-7.15 67.4-9.28 67.4-11.69L67.4-11.69 67.4-19.46 64.16-19.46 64.16-26.1 67.4-26.1 67.4-36.55 74.04-36.55 74.04-26.1 84.15-26.1 84.15-19.46 74.04-19.46 74.04-11.69Q74.04-10.64 74.43-9.73 74.82-8.81 75.51-8.13 76.19-7.45 77.12-7.04 78.05-6.64 79.1-6.64L79.1-6.64 84.15-6.64 84.15 0ZM110.78-21.46L98.28-6.4Q98.67-6.27 99.06-6.24 99.46-6.2 99.85-6.2L99.85-6.2Q100.82-6.2 101.73-6.47 102.63-6.74 103.42-7.24 104.22-7.74 104.84-8.46 105.46-9.18 105.85-10.06L105.85-10.06 110.73-5.15Q109.81-3.83 108.6-2.78 107.39-1.73 105.99-1 104.58-0.27 103.03 0.11 101.48 0.49 99.85 0.49L99.85 0.49Q97.09 0.49 94.66-0.54 92.23-1.56 90.41-3.39 88.59-5.22 87.54-7.75 86.49-10.28 86.49-13.31L86.49-13.31Q86.49-16.41 87.54-18.97 88.59-21.53 90.41-23.34 92.23-25.15 94.66-26.15 97.09-27.15 99.85-27.15L99.85-27.15Q101.48-27.15 103.04-26.76 104.61-26.37 106.01-25.63 107.41-24.9 108.64-23.84 109.86-22.78 110.78-21.46L110.78-21.46ZM93.94-9.84L101.7-20.14Q101.24-20.31 100.79-20.36 100.33-20.41 99.85-20.41L99.85-20.41Q98.48-20.41 97.27-19.91 96.06-19.41 95.17-18.48 94.28-17.55 93.77-16.25 93.25-14.94 93.25-13.31L93.25-13.31Q93.25-12.94 93.29-12.48 93.33-12.01 93.41-11.54 93.5-11.06 93.62-10.62 93.74-10.18 93.94-9.84L93.94-9.84Z" fill="white"></path><path d="M156.02-35.01L156.02 0 148.52 0 135.02-23.05 135.02 0 128.01 0 128.01-35.01 135.51-35.01 149.01-11.94 149.01-35.01 156.02-35.01ZM184.7-21.46L172.2-6.4Q172.59-6.27 172.98-6.24 173.37-6.2 173.76-6.2L173.76-6.2Q174.74-6.2 175.64-6.47 176.55-6.74 177.34-7.24 178.13-7.74 178.76-8.46 179.38-9.18 179.77-10.06L179.77-10.06 184.65-5.15Q183.72-3.83 182.52-2.78 181.31-1.73 179.9-1 178.5-0.27 176.95 0.11 175.4 0.49 173.76 0.49L173.76 0.49Q171 0.49 168.58-0.54 166.15-1.56 164.33-3.39 162.51-5.22 161.46-7.75 160.41-10.28 160.41-13.31L160.41-13.31Q160.41-16.41 161.46-18.97 162.51-21.53 164.33-23.34 166.15-25.15 168.58-26.15 171-27.15 173.76-27.15L173.76-27.15Q175.4-27.15 176.96-26.76 178.52-26.37 179.93-25.63 181.33-24.9 182.55-23.84 183.77-22.78 184.7-21.46L184.7-21.46ZM167.86-9.84L175.62-20.14Q175.15-20.31 174.7-20.36 174.25-20.41 173.76-20.41L173.76-20.41Q172.4-20.41 171.19-19.91 169.98-19.41 169.09-18.48 168.2-17.55 167.68-16.25 167.17-14.94 167.17-13.31L167.17-13.31Q167.17-12.94 167.21-12.48 167.24-12.01 167.33-11.54 167.42-11.06 167.54-10.62 167.66-10.18 167.86-9.84L167.86-9.84ZM202.54-13.4L212.12 0 203.96 0 198.76-8.01 193.51 0 185.36 0 194.9-13.4 185.36-26.29 193.51-26.29 198.76-18.8 203.96-26.29 212.12-26.29 202.54-13.4ZM235.89 0L233.69-3.05Q232.89-2.32 231.97-1.67 231.06-1.03 230.06-0.55 229.06-0.07 227.99 0.21 226.93 0.49 225.83 0.49L225.83 0.49Q223.42 0.49 221.29-0.37 219.17-1.22 217.57-2.8 215.97-4.37 215.05-6.63 214.14-8.89 214.14-11.69L214.14-11.69 214.14-26.15 220.78-26.15 220.78-11.69Q220.78-10.38 221.18-9.34 221.59-8.3 222.27-7.59 222.95-6.88 223.87-6.52 224.78-6.15 225.83-6.15L225.83-6.15Q226.86-6.15 227.77-6.63 228.69-7.1 229.37-7.89 230.06-8.67 230.45-9.66 230.84-10.64 230.84-11.69L230.84-11.69 230.84-26.15 237.5-26.15 237.5 0 235.89 0ZM256.93 0L256.93 0 241.7 0 241.7-6.64 256.93-6.64Q257.62-6.64 258.11-7.13 258.59-7.62 258.59-8.3L258.59-8.3Q258.59-9.01 258.11-9.23 257.62-9.45 256.93-9.45L256.93-9.45 250-9.45Q248.27-9.45 246.75-10.11 245.24-10.77 244.12-11.9 242.99-13.04 242.35-14.55 241.7-16.06 241.7-17.8L241.7-17.8Q241.7-19.53 242.35-21.04 242.99-22.56 244.12-23.68 245.24-24.8 246.75-25.45 248.27-26.1 250-26.1L250-26.1 263.5-26.1 263.5-19.46 250-19.46Q249.32-19.46 248.83-18.97 248.34-18.48 248.34-17.8L248.34-17.8Q248.34-17.09 248.83-16.59 249.32-16.09 250-16.09L250-16.09 256.93-16.09Q258.64-16.09 260.16-15.52 261.67-14.94 262.79-13.92 263.92-12.89 264.58-11.45 265.24-10.01 265.24-8.3L265.24-8.3Q265.24-6.57 264.58-5.07 263.92-3.56 262.79-2.43 261.67-1.29 260.16-0.65 258.64 0 256.93 0Z" fill="black"></path></g></svg></g></svg></g><g transform="matrix(1,0,0,1,0,69.21608460399813)"><svg viewBox="0 0 395.52 30.282131554672528" height="30.282131554672528" width="395.52"><g transform="matrix(1,0,0,1,0,0)"><svg width="395.52" viewBox="2.44 -39.11 688.14 52.68" height="30.282131554672528" data-palette-color="#390909"><path d="M32.28-7.52L32.28-3.25Q31.18-2.37 29.74-1.67 28.3-0.98 26.67-0.5 25.05-0.02 23.3 0.23 21.56 0.49 19.87 0.49L19.87 0.49Q16.14 0.49 12.94-0.73 9.74-1.95 7.41-4.21 5.08-6.47 3.76-9.67 2.44-12.87 2.44-16.8L2.44-16.8Q2.44-19.92 3.25-22.6 4.05-25.27 5.49-27.43 6.93-29.59 8.9-31.24 10.86-32.89 13.17-34 15.48-35.11 18.04-35.68 20.61-36.25 23.22-36.25L23.22-36.25Q24.05-36.25 25.18-36.19 26.32-36.13 27.58-35.99 28.83-35.84 30.14-35.61 31.45-35.38 32.64-35.06L32.64-35.06 31.23-28.81 30.74-28.61Q28.64-29.64 26.71-30.03 24.78-30.42 23.24-30.42L23.24-30.42Q20.85-30.42 18.9-29.58 16.94-28.74 15.55-27.19 14.16-25.63 13.4-23.4 12.65-21.17 12.65-18.38L12.65-18.38Q12.65-15.48 13.48-13.15 14.31-10.82 15.88-9.19 17.46-7.57 19.71-6.69 21.97-5.81 24.83-5.81L24.83-5.81Q26.03-5.81 27.06-5.96 28.1-6.1 29.02-6.35 29.93-6.59 30.74-6.9 31.54-7.2 32.28-7.52L32.28-7.52ZM50.54 0.49L50.54 0.49Q47.02 0.49 44.45-0.55 41.87-1.59 40.19-3.34 38.5-5.1 37.67-7.41 36.84-9.72 36.84-12.26L36.84-12.26Q36.84-15.23 37.93-17.81 39.01-20.39 41.03-22.29 43.04-24.19 45.9-25.28 48.75-26.37 52.32-26.37L52.32-26.37Q55.76-26.37 58.34-25.35 60.91-24.34 62.62-22.6 64.33-20.85 65.19-18.53 66.04-16.21 66.04-13.6L66.04-13.6Q66.04-10.55 64.93-7.96 63.82-5.37 61.78-3.49 59.74-1.61 56.88-0.56 54.03 0.49 50.54 0.49ZM51.59-5.27L51.59-5.27Q52.51-5.27 53.33-5.69 54.15-6.1 54.75-7.01 55.35-7.91 55.69-9.29 56.03-10.67 56.03-12.62L56.03-12.62Q56.03-14.43 55.71-15.91 55.4-17.38 54.8-18.42 54.2-19.46 53.31-20.03 52.42-20.61 51.29-20.61L51.29-20.61Q49.32-20.61 48.08-18.77 46.85-16.94 46.85-13.21L46.85-13.21Q46.85-11.28 47.19-9.8 47.53-8.33 48.16-7.31 48.78-6.3 49.65-5.79 50.51-5.27 51.59-5.27ZM71.41 0L71.41-25.88 79.76-25.88 80.88-21.73Q81.71-22.41 82.73-23.23 83.74-24.05 84.91-24.74 86.08-25.44 87.43-25.9 88.77-26.37 90.26-26.37L90.26-26.37Q92.07-26.37 93.57-25.74 95.07-25.12 96.14-23.96 97.22-22.8 97.81-21.17 98.41-19.53 98.41-17.53L98.41-17.53 98.41 0 88.65 0 88.65-16.06Q88.65-17.04 88.38-17.8 88.11-18.55 87.63-19.06 87.16-19.56 86.54-19.81 85.91-20.07 85.23-20.07L85.23-20.07Q84.13-20.07 83.12-19.53 82.1-18.99 81.18-18.26L81.18-18.26 81.18 0 71.41 0ZM105.25 0L105.25-25.88 113.6-25.88 114.72-21.73Q115.55-22.41 116.56-23.23 117.58-24.05 118.75-24.74 119.92-25.44 121.26-25.9 122.61-26.37 124.1-26.37L124.1-26.37Q125.9-26.37 127.4-25.74 128.91-25.12 129.98-23.96 131.05-22.8 131.65-21.17 132.25-19.53 132.25-17.53L132.25-17.53 132.25 0 122.49 0 122.49-16.06Q122.49-17.04 122.22-17.8 121.95-18.55 121.47-19.06 121-19.56 120.37-19.81 119.75-20.07 119.07-20.07L119.07-20.07Q117.97-20.07 116.96-19.53 115.94-18.99 115.01-18.26L115.01-18.26 115.01 0 105.25 0ZM162.57-6.84L162.57-2.88Q161.11-1.86 159.67-1.2 158.23-0.54 156.85-0.17 155.47 0.2 154.14 0.34 152.81 0.49 151.56 0.49L151.56 0.49Q148.22 0.49 145.62-0.35 143.02-1.2 141.24-2.78 139.45-4.37 138.54-6.67 137.62-8.96 137.62-11.89L137.62-11.89Q137.62-15.33 138.83-18.02 140.04-20.7 142.07-22.56 144.09-24.41 146.75-25.39 149.41-26.37 152.34-26.37L152.34-26.37Q154.93-26.37 157.08-25.6 159.23-24.83 160.78-23.33 162.33-21.83 163.18-19.6 164.04-17.38 164.04-14.5L164.04-14.5Q164.04-13.4 163.94-12.65 163.84-11.89 163.75-11.47L163.75-11.47 147.63-11.47Q147.63-9.89 148.18-8.81 148.73-7.74 149.76-7.07 150.78-6.4 152.23-6.1 153.69-5.81 155.49-5.81L155.49-5.81Q156.98-5.81 158.86-6.03 160.74-6.25 162.57-6.84L162.57-6.84ZM147.63-14.5L155.25-14.5Q155.25-16.11 154.98-17.27 154.71-18.43 154.24-19.18 153.76-19.92 153.06-20.26 152.37-20.61 151.54-20.61L151.54-20.61Q149.71-20.61 148.67-19.08 147.63-17.55 147.63-14.5L147.63-14.5ZM189.87-6.84L189.87-2.88Q188.67-1.88 187.52-1.23 186.38-0.59 185.24-0.21 184.11 0.17 182.97 0.33 181.84 0.49 180.66 0.49L180.66 0.49Q177.61 0.49 175.24-0.4 172.88-1.29 171.25-2.91 169.63-4.52 168.79-6.74 167.94-8.96 167.94-11.62L167.94-11.62Q167.94-14.92 169.19-17.63 170.43-20.34 172.6-22.28 174.76-24.22 177.69-25.29 180.62-26.37 183.98-26.37L183.98-26.37Q184.52-26.37 185.22-26.33 185.91-26.29 186.73-26.2 187.55-26.1 188.45-25.93 189.36-25.76 190.31-25.49L190.31-25.49 188.99-19.48 188.55-19.24Q188.18-19.46 187.67-19.7 187.16-19.95 186.55-20.14 185.94-20.34 185.25-20.47 184.57-20.61 183.86-20.61L183.86-20.61Q182.52-20.61 181.43-20.08 180.35-19.56 179.58-18.59 178.81-17.63 178.38-16.24 177.95-14.84 177.95-13.11L177.95-13.11Q177.95-11.13 178.49-9.75 179.03-8.37 179.98-7.5 180.93-6.62 182.28-6.21 183.62-5.81 185.23-5.81L185.23-5.81Q185.77-5.81 186.28-5.86 186.79-5.91 187.34-6.03 187.89-6.15 188.5-6.35 189.11-6.54 189.87-6.84L189.87-6.84ZM197.56-9.18L197.56-20.12 192.38-20.12 192.97-24.12Q194.29-24.63 195.24-25.07 196.19-25.51 196.92-25.99 197.66-26.46 198.22-27.03 198.78-27.59 199.32-28.34 199.85-29.1 200.43-30.09 201-31.08 201.76-32.42L201.76-32.42 206.64-32.42 206.64-25.88 215.72-25.88 214.45-20.12 207.32-20.12 207.32-10.21Q207.32-7.76 208.56-6.79 209.79-5.81 212.18-5.81L212.18-5.81Q213.04-5.81 213.95-5.94 214.87-6.08 215.75-6.45L215.75-6.45 215.75-2.49Q213.72-0.95 211.23-0.23 208.74 0.49 206.3 0.49L206.3 0.49Q203.86 0.49 202.19-0.2 200.51-0.88 199.49-2.14 198.46-3.39 198.01-5.18 197.56-6.96 197.56-9.18L197.56-9.18ZM221.12 0L221.12-25.88 230.88-25.88 230.88 0 221.12 0ZM225.85-29.44L225.85-29.44Q224.61-29.44 223.61-29.8 222.61-30.15 221.9-30.77 221.19-31.4 220.81-32.23 220.43-33.06 220.43-34.01L220.43-34.01Q220.43-34.99 220.85-35.86 221.26-36.74 222.02-37.38 222.78-38.01 223.83-38.39 224.88-38.77 226.15-38.77L226.15-38.77Q227.39-38.77 228.39-38.42 229.39-38.06 230.1-37.44 230.81-36.82 231.19-35.99 231.57-35.16 231.57-34.2L231.57-34.2Q231.57-33.2 231.15-32.34 230.74-31.47 229.98-30.83 229.22-30.2 228.17-29.82 227.12-29.44 225.85-29.44ZM237.72 0L237.72-25.88 246.07-25.88 247.19-21.73Q248.02-22.41 249.04-23.23 250.05-24.05 251.22-24.74 252.39-25.44 253.74-25.9 255.08-26.37 256.57-26.37L256.57-26.37Q258.37-26.37 259.88-25.74 261.38-25.12 262.45-23.96 263.53-22.8 264.12-21.17 264.72-19.53 264.72-17.53L264.72-17.53 264.72 0 254.96 0 254.96-16.06Q254.96-17.04 254.69-17.8 254.42-18.55 253.94-19.06 253.47-19.56 252.84-19.81 252.22-20.07 251.54-20.07L251.54-20.07Q250.44-20.07 249.43-19.53 248.41-18.99 247.49-18.26L247.49-18.26 247.49 0 237.72 0ZM275.22 2.2L275.22 2.2Q272.97 1.42 271.88 0.31 270.78-0.81 270.78-2.05L270.78-2.05Q270.78-2.93 271.29-3.66 271.8-4.39 272.63-5.04 273.46-5.69 274.51-6.25 275.56-6.81 276.64-7.37L276.64-7.37Q274.66-8.03 273.36-9.02 272.07-10.01 271.31-11.17 270.56-12.33 270.25-13.55 269.95-14.77 269.95-15.92L269.95-15.92Q269.95-18.21 270.97-20.13 272-22.05 273.79-23.44 275.59-24.83 278.05-25.6 280.52-26.37 283.4-26.37L283.4-26.37Q285.42-26.37 287.39-25.96 289.36-25.56 290.75-24.71L290.75-24.71Q291.11-24.9 291.53-25.11 291.94-25.32 292.53-25.49 293.12-25.66 293.9-25.77 294.68-25.88 295.78-25.88L295.78-25.88 299.24-25.88 297.97-20.12 294.21-20.12Q294.51-19.48 294.73-18.75 294.95-18.02 294.95-16.97L294.95-16.97Q294.95-14.77 293.88-12.93 292.82-11.08 291.04-9.75 289.26-8.42 286.91-7.68 284.57-6.93 282.01-6.93L282.01-6.93 281.13-6.93Q280.91-6.81 280.63-6.63 280.35-6.45 280.11-6.21 279.88-5.98 279.72-5.69 279.57-5.4 279.57-5.05L279.57-5.05Q279.57-4.42 280.13-3.99 280.69-3.56 281.76-3.56L281.76-3.56 287.43-3.56Q289.18-3.56 290.98-3.23 292.77-2.91 294.24-2.14 295.7-1.37 296.62-0.13 297.53 1.1 297.53 2.91L297.53 2.91Q297.53 4.71 296.51 6.6 295.48 8.5 293.41 10.05 291.33 11.6 288.18 12.59 285.03 13.57 280.76 13.57L280.76 13.57Q278.27 13.57 276.14 13.21 274 12.84 272.44 12.13 270.87 11.43 270 10.4 269.12 9.38 269.12 8.08L269.12 8.08Q269.12 7.06 269.64 6.24 270.17 5.42 271.02 4.71 271.88 4 272.97 3.39 274.07 2.78 275.22 2.2ZM278.54-16.77L278.54-16.77Q278.54-15.72 278.88-14.88 279.22-14.04 279.8-13.44 280.37-12.84 281.13-12.52 281.88-12.21 282.74-12.21L282.74-12.21Q283.54-12.21 284.27-12.5 284.99-12.79 285.52-13.35 286.06-13.92 286.38-14.72 286.69-15.53 286.69-16.53L286.69-16.53Q286.69-17.58 286.35-18.42 286.01-19.26 285.45-19.86 284.89-20.46 284.12-20.78 283.35-21.09 282.52-21.09L282.52-21.09Q281.71-21.09 280.99-20.8 280.27-20.51 279.72-19.95 279.17-19.38 278.86-18.58 278.54-17.77 278.54-16.77ZM285.13 2.73L279.61 2.73Q278.93 3.27 278.42 3.86 277.91 4.44 277.91 5.22L277.91 5.22Q277.91 6.37 279.16 7.09 280.42 7.81 282.86 7.81L282.86 7.81Q284.35 7.81 285.45 7.54 286.55 7.28 287.28 6.84 288.01 6.4 288.38 5.85 288.75 5.3 288.75 4.76L288.75 4.76Q288.75 3.91 287.85 3.32 286.96 2.73 285.13 2.73L285.13 2.73ZM321.29-15.23L309.25-35.77 320.61-35.77 327.49-21.8 334.4-35.77 343.21-35.77 331.2-15.53 331.2 0 321.29 0 321.29-15.23ZM355.1 0.49L355.1 0.49Q351.59 0.49 349.01-0.55 346.44-1.59 344.75-3.34 343.07-5.1 342.24-7.41 341.41-9.72 341.41-12.26L341.41-12.26Q341.41-15.23 342.49-17.81 343.58-20.39 345.59-22.29 347.61-24.19 350.46-25.28 353.32-26.37 356.88-26.37L356.88-26.37Q360.33-26.37 362.9-25.35 365.48-24.34 367.19-22.6 368.9-20.85 369.75-18.53 370.61-16.21 370.61-13.6L370.61-13.6Q370.61-10.55 369.49-7.96 368.38-5.37 366.35-3.49 364.31-1.61 361.45-0.56 358.59 0.49 355.1 0.49ZM356.15-5.27L356.15-5.27Q357.08-5.27 357.9-5.69 358.72-6.1 359.31-7.01 359.91-7.91 360.25-9.29 360.6-10.67 360.6-12.62L360.6-12.62Q360.6-14.43 360.28-15.91 359.96-17.38 359.36-18.42 358.76-19.46 357.87-20.03 356.98-20.61 355.86-20.61L355.86-20.61Q353.88-20.61 352.65-18.77 351.42-16.94 351.42-13.21L351.42-13.21Q351.42-11.28 351.76-9.8 352.1-8.33 352.72-7.31 353.34-6.3 354.21-5.79 355.08-5.27 356.15-5.27ZM375.98-8.4L375.98-25.88 385.74-25.88 385.74-9.81Q385.74-7.93 386.63-6.87 387.52-5.81 388.92-5.81L388.92-5.81Q389.87-5.81 390.78-6.32 391.7-6.84 392.63-7.62L392.63-7.62 392.63-25.88 402.39-25.88 402.39 0 394.04 0 392.92-4.15Q392.04-3.37 391.03-2.55 390.01-1.73 388.89-1.06 387.77-0.39 386.55 0.05 385.33 0.49 384.03 0.49L384.03 0.49Q382.59 0.49 381.16-0.04 379.74-0.56 378.58-1.65 377.42-2.73 376.7-4.41 375.98-6.08 375.98-8.4L375.98-8.4ZM409.23 0L409.23-25.88 417.58-25.88 418.7-18.36Q419.12-19.12 419.53-19.86 419.95-20.61 420.3-21.23 420.65-21.85 420.91-22.3 421.17-22.75 421.24-22.9L421.24-22.9Q421.7-23.66 422.25-24.29 422.8-24.93 423.5-25.39 424.19-25.85 425.06-26.11 425.93-26.37 427.03-26.37L427.03-26.37Q427.73-26.37 428.65-26.17 429.57-25.98 430.37-25.56L430.37-25.56 429.3-16.85Q429.05-16.89 428.65-16.93 428.25-16.97 427.78-16.99 427.32-17.02 426.88-17.03 426.44-17.04 426.12-17.04L426.12-17.04Q425.05-17.04 424-16.89 422.95-16.75 422.01-16.47 421.07-16.19 420.29-15.78 419.51-15.38 418.99-14.89L418.99-14.89 418.99 0 409.23 0ZM463.57-29.93L463.57 0 453.66 0 453.66-29.93 442.82-29.93 443.85-35.77 474.44-35.77 473.41-29.93 463.57-29.93ZM479.32 0L479.32-39.11 489.09-39.11 489.09-21.78Q490.09-22.61 491.15-23.44 492.21-24.27 493.36-24.91 494.51-25.56 495.76-25.96 497.02-26.37 498.41-26.37L498.41-26.37Q500.12-26.37 501.57-25.74 503.03-25.12 504.09-23.96 505.15-22.8 505.74-21.17 506.32-19.53 506.32-17.53L506.32-17.53 506.32 0 496.56 0 496.56-16.06Q496.56-17.04 496.29-17.79 496.02-18.53 495.56-19.04 495.09-19.56 494.47-19.81 493.85-20.07 493.14-20.07L493.14-20.07Q492.07-20.07 491.05-19.56 490.04-19.04 489.09-18.26L489.09-18.26 489.09 0 479.32 0ZM525.39 0.49L525.39 0.49Q521.88 0.49 519.3-0.55 516.72-1.59 515.04-3.34 513.35-5.1 512.52-7.41 511.69-9.72 511.69-12.26L511.69-12.26Q511.69-15.23 512.78-17.81 513.87-20.39 515.88-22.29 517.9-24.19 520.75-25.28 523.61-26.37 527.17-26.37L527.17-26.37Q530.62-26.37 533.19-25.35 535.77-24.34 537.48-22.6 539.18-20.85 540.04-18.53 540.89-16.21 540.89-13.6L540.89-13.6Q540.89-10.55 539.78-7.96 538.67-5.37 536.63-3.49 534.59-1.61 531.74-0.56 528.88 0.49 525.39 0.49ZM526.44-5.27L526.44-5.27Q527.37-5.27 528.19-5.69 529-6.1 529.6-7.01 530.2-7.91 530.54-9.29 530.88-10.67 530.88-12.62L530.88-12.62Q530.88-14.43 530.57-15.91 530.25-17.38 529.65-18.42 529.05-19.46 528.16-20.03 527.27-20.61 526.15-20.61L526.15-20.61Q524.17-20.61 522.94-18.77 521.7-16.94 521.7-13.21L521.7-13.21Q521.7-11.28 522.05-9.8 522.39-8.33 523.01-7.31 523.63-6.3 524.5-5.79 525.37-5.27 526.44-5.27ZM546.26-8.4L546.26-25.88 556.03-25.88 556.03-9.81Q556.03-7.93 556.92-6.87 557.81-5.81 559.2-5.81L559.2-5.81Q560.16-5.81 561.07-6.32 561.99-6.84 562.92-7.62L562.92-7.62 562.92-25.88 572.68-25.88 572.68 0 564.33 0 563.21-4.15Q562.33-3.37 561.32-2.55 560.3-1.73 559.18-1.06 558.06-0.39 556.84 0.05 555.62 0.49 554.32 0.49L554.32 0.49Q552.88 0.49 551.45-0.04 550.02-0.56 548.86-1.65 547.71-2.73 546.98-4.41 546.26-6.08 546.26-8.4L546.26-8.4ZM583.18 2.2L583.18 2.2Q580.93 1.42 579.83 0.31 578.74-0.81 578.74-2.05L578.74-2.05Q578.74-2.93 579.25-3.66 579.76-4.39 580.59-5.04 581.42-5.69 582.47-6.25 583.52-6.81 584.59-7.37L584.59-7.37Q582.62-8.03 581.32-9.02 580.03-10.01 579.27-11.17 578.52-12.33 578.21-13.55 577.91-14.77 577.91-15.92L577.91-15.92Q577.91-18.21 578.93-20.13 579.96-22.05 581.75-23.44 583.54-24.83 586.01-25.6 588.48-26.37 591.36-26.37L591.36-26.37Q593.38-26.37 595.35-25.96 597.31-25.56 598.71-24.71L598.71-24.71Q599.07-24.9 599.49-25.11 599.9-25.32 600.49-25.49 601.07-25.66 601.86-25.77 602.64-25.88 603.74-25.88L603.74-25.88 607.2-25.88 605.93-20.12 602.17-20.12Q602.47-19.48 602.69-18.75 602.91-18.02 602.91-16.97L602.91-16.97Q602.91-14.77 601.84-12.93 600.78-11.08 599-9.75 597.22-8.42 594.87-7.68 592.53-6.93 589.97-6.93L589.97-6.93 589.09-6.93Q588.87-6.81 588.59-6.63 588.31-6.45 588.07-6.21 587.84-5.98 587.68-5.69 587.52-5.4 587.52-5.05L587.52-5.05Q587.52-4.42 588.09-3.99 588.65-3.56 589.72-3.56L589.72-3.56 595.39-3.56Q597.14-3.56 598.94-3.23 600.73-2.91 602.2-2.14 603.66-1.37 604.58-0.13 605.49 1.1 605.49 2.91L605.49 2.91Q605.49 4.71 604.47 6.6 603.44 8.5 601.37 10.05 599.29 11.6 596.14 12.59 592.99 13.57 588.72 13.57L588.72 13.57Q586.23 13.57 584.09 13.21 581.96 12.84 580.4 12.13 578.83 11.43 577.95 10.4 577.08 9.38 577.08 8.08L577.08 8.08Q577.08 7.06 577.6 6.24 578.13 5.42 578.98 4.71 579.83 4 580.93 3.39 582.03 2.78 583.18 2.2ZM586.5-16.77L586.5-16.77Q586.5-15.72 586.84-14.88 587.18-14.04 587.76-13.44 588.33-12.84 589.09-12.52 589.84-12.21 590.7-12.21L590.7-12.21Q591.5-12.21 592.22-12.5 592.94-12.79 593.48-13.35 594.02-13.92 594.34-14.72 594.65-15.53 594.65-16.53L594.65-16.53Q594.65-17.58 594.31-18.42 593.97-19.26 593.41-19.86 592.85-20.46 592.08-20.78 591.31-21.09 590.48-21.09L590.48-21.09Q589.67-21.09 588.95-20.8 588.23-20.51 587.68-19.95 587.13-19.38 586.82-18.58 586.5-17.77 586.5-16.77ZM593.09 2.73L587.57 2.73Q586.89 3.27 586.38 3.86 585.86 4.44 585.86 5.22L585.86 5.22Q585.86 6.37 587.12 7.09 588.38 7.81 590.82 7.81L590.82 7.81Q592.31 7.81 593.41 7.54 594.51 7.28 595.24 6.84 595.97 6.4 596.34 5.85 596.7 5.3 596.7 4.76L596.7 4.76Q596.7 3.91 595.81 3.32 594.92 2.73 593.09 2.73L593.09 2.73ZM610.62 0L610.62-39.11 620.39-39.11 620.39-21.78Q621.39-22.61 622.45-23.44 623.51-24.27 624.66-24.91 625.81-25.56 627.06-25.96 628.32-26.37 629.71-26.37L629.71-26.37Q631.42-26.37 632.87-25.74 634.33-25.12 635.39-23.96 636.45-22.8 637.04-21.17 637.62-19.53 637.62-17.53L637.62-17.53 637.62 0 627.86 0 627.86-16.06Q627.86-17.04 627.59-17.79 627.32-18.53 626.86-19.04 626.39-19.56 625.77-19.81 625.15-20.07 624.44-20.07L624.44-20.07Q623.36-20.07 622.35-19.56 621.34-19.04 620.39-18.26L620.39-18.26 620.39 0 610.62 0ZM646.41-9.18L646.41-20.12 641.24-20.12 641.82-24.12Q643.14-24.63 644.09-25.07 645.04-25.51 645.78-25.99 646.51-26.46 647.07-27.03 647.63-27.59 648.17-28.34 648.71-29.1 649.28-30.09 649.85-31.08 650.61-32.42L650.61-32.42 655.49-32.42 655.49-25.88 664.58-25.88 663.31-20.12 656.18-20.12 656.18-10.21Q656.18-7.76 657.41-6.79 658.64-5.81 661.04-5.81L661.04-5.81Q661.89-5.81 662.81-5.94 663.72-6.08 664.6-6.45L664.6-6.45 664.6-2.49Q662.57-0.95 660.08-0.23 657.59 0.49 655.15 0.49L655.15 0.49Q652.71 0.49 651.04-0.2 649.37-0.88 648.34-2.14 647.31-3.39 646.86-5.18 646.41-6.96 646.41-9.18L646.41-9.18ZM668.26-1.37L669.58-7.42 670.02-7.67Q671.04-7.1 672.13-6.67 673.22-6.23 674.28-5.92 675.34-5.62 676.37-5.44 677.39-5.27 678.32-5.27L678.32-5.27Q679.3-5.27 679.96-5.46 680.62-5.64 681.02-5.93 681.42-6.23 681.6-6.6 681.79-6.98 681.79-7.37L681.79-7.37Q681.79-8.11 681.24-8.56 680.69-9.01 679.8-9.33 678.91-9.64 677.77-9.89 676.64-10.13 675.44-10.47 674.24-10.82 673.11-11.32 671.97-11.82 671.08-12.61 670.19-13.4 669.64-14.59 669.09-15.77 669.09-17.48L669.09-17.48Q669.09-19.48 669.9-21.12 670.7-22.75 672.31-23.93 673.93-25.1 676.33-25.73 678.74-26.37 681.91-26.37L681.91-26.37Q682.74-26.37 683.75-26.32 684.77-26.27 685.78-26.17 686.79-26.07 687.74-25.92 688.7-25.76 689.4-25.54L689.4-25.54 688.09-19.48 687.65-19.24Q685.77-19.97 684.07-20.29 682.37-20.61 681.18-20.61L681.18-20.61Q680.22-20.61 679.59-20.43 678.96-20.26 678.58-19.97 678.2-19.68 678.04-19.32 677.88-18.97 677.88-18.6L677.88-18.6Q677.88-17.82 678.43-17.36 678.98-16.89 679.87-16.58 680.76-16.26 681.9-16.02 683.03-15.77 684.23-15.45 685.42-15.14 686.56-14.67 687.7-14.21 688.59-13.43 689.48-12.65 690.03-11.49 690.58-10.33 690.58-8.64L690.58-8.64Q690.58-6.86 689.89-5.21 689.21-3.56 687.72-2.29 686.23-1.03 683.9-0.27 681.57 0.49 678.27 0.49L678.27 0.49Q677.05 0.49 675.74 0.38 674.44 0.27 673.13 0.04 671.83-0.2 670.58-0.54 669.34-0.88 668.26-1.37L668.26-1.37Z" opacity="1" transform="matrix(1,0,0,1,0,0)" fill="black" class="slogan-text-1" id="SvgjsPath1052"></path></svg></g></svg></g></svg></g></svg></g><g><svg viewBox="0 0 112.94739126153328 137.50653473128287" height="137.50653473128287" width="112.94739126153328"><g><svg xmlns="http://www.w3.org/2000/svg" xmlns:xlink="http://www.w3.org/1999/xlink" version="1.1" x="0" y="0" viewBox="2.225800210941924 0 19.549237549165987 23.799999999999997" style="enable-background:new 0 0 24 24;" xml:space="preserve" height="137.50653473128287" width="112.94739126153328" class="icon-icon-0" data-fill-palette-color="accent" id="SvgjsSvg1051"><g fill="black"><path d="M21.512 12.394c0 0-1.322-2.154-1.549-2.646-0.228-0.491-0.152-1.209 0-1.738 0.15-0.529 0-1.285 0-1.285C18.64 0.907 13.501 0 10.969 0S3.563 1.02 2.467 6.575c-1.082 5.485 1.765 8.323 2.834 10.088 0.443 0.732 0.283 2.79 0.043 4.063l8.433 3.074c0.113-0.588 0.178-1.066 0.178-1.431 0-2.91 2.154-2.646 4.119-2.759s1.983-0.699 1.965-1.247c-0.02-0.548 0.151-0.907 0.51-1.454 0.359-0.549-0.207-0.813-0.207-0.813 0.642-0.039 0.227-0.756 0.227-0.756s-0.604-1.135 0.566-1.398C22.306 13.679 21.512 12.394 21.512 12.394zM10.251 13.792C3.072 14.17 3.563 8.2 3.563 8.2c0.643-6.311 5.744-6.727 5.744-6.727 8.086-0.906 9.22 4.043 9.446 5.895C18.935 8.849 17.431 13.414 10.251 13.792z" fill="black"></path><path d="M12.297 7.397c-0.016-0.111-0.102-0.206-0.219-0.226-0.038-0.007-0.075-0.006-0.11 0.003l-0.264 0.042c-0.065-0.419-0.211-0.814-0.425-1.168l0.229-0.139c0.034-0.017 0.063-0.039 0.086-0.068 0.077-0.091 0.083-0.219 0.024-0.313-0.185-0.255-0.404-0.492-0.655-0.703-0.251-0.212-0.523-0.385-0.806-0.522-0.105-0.041-0.229-0.016-0.305 0.076C9.827 4.407 9.809 4.441 9.799 4.475L9.703 4.722C9.512 4.648 9.311 4.591 9.102 4.554 8.893 4.517 8.684 4.502 8.479 4.505L8.473 4.241c0.002-0.036-0.002-0.073-0.015-0.109C8.417 4.02 8.312 3.954 8.199 3.956 7.884 3.988 7.569 4.058 7.261 4.17 6.952 4.281 6.666 4.43 6.404 4.606c-0.087 0.07-0.126 0.191-0.085 0.303 0.013 0.036 0.032 0.068 0.057 0.094l0.169 0.209C6.223 5.471 5.95 5.792 5.746 6.164l-0.235-0.13C5.48 6.013 5.447 5.999 5.41 5.992 5.292 5.971 5.179 6.031 5.126 6.129 4.997 6.417 4.902 6.725 4.844 7.048c-0.057 0.324-0.073 0.646-0.05 0.959 0.016 0.112 0.103 0.206 0.22 0.227C5.051 8.24 5.088 8.239 5.123 8.23l0.265-0.042c0.064 0.419 0.21 0.815 0.425 1.168l-0.23 0.138C5.55 9.512 5.521 9.534 5.497 9.563 5.42 9.654 5.415 9.782 5.473 9.877c0.185 0.254 0.403 0.492 0.655 0.703 0.25 0.211 0.522 0.384 0.805 0.522 0.105 0.042 0.229 0.015 0.306-0.077 0.024-0.03 0.042-0.063 0.052-0.097l0.096-0.247c0.191 0.076 0.392 0.132 0.602 0.169 0.21 0.037 0.418 0.053 0.623 0.047l0.005 0.265c-0.001 0.037 0.002 0.075 0.016 0.109 0.04 0.112 0.147 0.179 0.26 0.177 0.313-0.032 0.627-0.102 0.937-0.215 0.309-0.112 0.595-0.26 0.856-0.436 0.088-0.069 0.127-0.191 0.085-0.303-0.013-0.036-0.033-0.066-0.058-0.094l-0.167-0.208c0.322-0.259 0.596-0.58 0.8-0.951l0.234 0.129c0.03 0.02 0.064 0.034 0.103 0.041 0.116 0.021 0.229-0.038 0.283-0.137 0.127-0.287 0.223-0.595 0.28-0.918 0.058-0.325 0.073-0.647 0.051-0.961V7.397zM10.289 8.011c-0.17 0.96-1.09 1.605-2.051 1.435-0.961-0.17-1.605-1.09-1.436-2.051s1.091-1.606 2.052-1.437C9.814 6.128 10.458 7.051 10.289 8.011z" fill="black"></path><polygon points="6.934,11.104 6.933,11.103 6.933,11.103  " fill="black"></polygon><polygon points="8.894,11.45 8.893,11.449 8.892,11.449  " fill="black"></polygon><circle cx="8.545" cy="7.702" r="1.0" fill="black"></circle><path d="M16.252 4.29c-0.039-0.049-0.107-0.069-0.17-0.047-0.021 0.008-0.037 0.019-0.052 0.034l-0.18 0.146c-0.068-0.083-0.146-0.164-0.233-0.236-0.088-0.073-0.181-0.133-0.276-0.185l0.108-0.204c0.012-0.018 0.019-0.036 0.022-0.058 0.012-0.064-0.022-0.128-0.078-0.157-0.161-0.07-0.334-0.123-0.515-0.153-0.182-0.029-0.361-0.037-0.536-0.021-0.063 0.009-0.114 0.057-0.126 0.124-0.003 0.021-0.002 0.042 0.003 0.06l0.038 0.23c-0.218 0.035-0.428 0.113-0.62 0.232l-0.123-0.198c-0.009-0.018-0.021-0.034-0.037-0.048-0.053-0.043-0.122-0.045-0.177-0.011h0.001c-0.142 0.104-0.272 0.228-0.39 0.37-0.117 0.142-0.213 0.295-0.288 0.453-0.022 0.059-0.005 0.126 0.046 0.169 0.016 0.013 0.033 0.024 0.054 0.028l0.216 0.083c-0.077 0.21-0.114 0.431-0.107 0.651l-0.231 0.006c-0.02 0-0.04 0.002-0.061 0.009-0.062 0.024-0.1 0.084-0.096 0.147 0.018 0.175 0.061 0.35 0.124 0.522 0.064 0.172 0.149 0.332 0.248 0.476 0.04 0.049 0.108 0.07 0.171 0.046 0.018-0.008 0.036-0.019 0.05-0.033l0.179-0.146c0.069 0.084 0.147 0.163 0.235 0.235 0.088 0.072 0.181 0.134 0.275 0.185L13.62 7.205c-0.011 0.017-0.018 0.038-0.021 0.057C13.587 7.328 13.62 7.39 13.676 7.42c0.161 0.069 0.334 0.123 0.516 0.152 0.181 0.029 0.361 0.038 0.537 0.022 0.062-0.009 0.113-0.057 0.125-0.123 0.003-0.021 0.001-0.042-0.005-0.062l-0.037-0.228c0.217-0.036 0.429-0.113 0.62-0.23l0.121 0.195c0.009 0.02 0.023 0.035 0.039 0.048 0.051 0.042 0.121 0.046 0.174 0.011v0.001c0.142-0.104 0.273-0.228 0.391-0.369 0.117-0.143 0.212-0.295 0.286-0.455 0.023-0.058 0.008-0.127-0.044-0.169-0.016-0.013-0.034-0.022-0.055-0.029l-0.217-0.08c0.08-0.213 0.115-0.435 0.107-0.655l0.233-0.008c0.021 0.002 0.041 0 0.061-0.008 0.063-0.023 0.101-0.084 0.098-0.147-0.019-0.173-0.062-0.35-0.126-0.521C16.436 4.593 16.352 4.434 16.252 4.29zM15.335 6.162c-0.363 0.442-1.017 0.504-1.459 0.14-0.442-0.364-0.508-1.017-0.144-1.458 0.364-0.443 1.019-0.506 1.461-0.142S15.7 5.72 15.335 6.162z" fill="black"></path><path d="M15.618 9.177c-0.034-0.043-0.093-0.061-0.146-0.041-0.018 0.006-0.031 0.015-0.044 0.029l-0.154 0.125c-0.059-0.072-0.126-0.141-0.2-0.203-0.076-0.062-0.155-0.114-0.237-0.158l0.093-0.176c0.01-0.015 0.017-0.03 0.02-0.049 0.009-0.056-0.02-0.111-0.068-0.135-0.138-0.061-0.285-0.105-0.44-0.132-0.156-0.025-0.312-0.031-0.461-0.018-0.054 0.007-0.098 0.049-0.107 0.106-0.003 0.018-0.002 0.036 0.002 0.051l0.032 0.198c-0.188 0.03-0.367 0.097-0.531 0.2l-0.105-0.17c-0.009-0.016-0.02-0.03-0.033-0.041-0.045-0.037-0.105-0.039-0.151-0.01v0c-0.12 0.089-0.233 0.195-0.334 0.317-0.1 0.122-0.183 0.253-0.247 0.39-0.02 0.05-0.005 0.108 0.04 0.145 0.014 0.011 0.028 0.021 0.046 0.024l0.186 0.071c-0.067 0.18-0.098 0.37-0.092 0.559l-0.199 0.006c-0.017 0-0.034 0.001-0.052 0.007-0.054 0.021-0.085 0.072-0.082 0.126 0.015 0.149 0.051 0.3 0.106 0.448 0.055 0.148 0.128 0.284 0.213 0.409 0.035 0.042 0.093 0.06 0.146 0.04 0.017-0.007 0.032-0.017 0.044-0.029l0.153-0.125c0.06 0.071 0.126 0.14 0.202 0.202 0.075 0.062 0.155 0.115 0.236 0.159l-0.093 0.175c-0.01 0.015-0.016 0.032-0.019 0.049-0.01 0.057 0.019 0.11 0.065 0.136 0.14 0.059 0.287 0.105 0.443 0.13 0.156 0.024 0.311 0.032 0.46 0.019 0.054-0.007 0.099-0.049 0.107-0.105 0.004-0.019 0.002-0.036-0.003-0.053l-0.031-0.196c0.186-0.03 0.367-0.097 0.531-0.197l0.104 0.167c0.008 0.018 0.021 0.03 0.034 0.042 0.043 0.036 0.104 0.039 0.148 0.01 0.122-0.089 0.235-0.195 0.335-0.316 0.102-0.122 0.184-0.253 0.246-0.39 0.021-0.05 0.007-0.11-0.037-0.146-0.014-0.011-0.029-0.019-0.047-0.024l-0.187-0.068c0.068-0.183 0.1-0.374 0.093-0.563l0.199-0.006c0.019 0.001 0.036 0 0.053-0.007 0.054-0.02 0.086-0.072 0.084-0.126-0.017-0.149-0.053-0.3-0.108-0.448C15.776 9.437 15.703 9.3 15.618 9.177zM14.831 10.784c-0.313 0.379-0.873 0.433-1.253 0.121-0.381-0.313-0.436-0.874-0.123-1.253 0.313-0.381 0.874-0.436 1.255-0.122C15.089 9.842 15.144 10.404 14.831 10.784z" fill="black"></path><polygon points="15.201,11.68 15.2,11.68 15.2,11.681  " fill="black"></polygon></g></svg></g></svg></g></svg></g><defs><mask></mask></defs></svg><rect width="395.52" height="104.25140015909693" fill="black" stroke="none" visibility="hidden"></rect></g></mask><linearGradient x1="0.054" x2="0.941" y1="0.5" y2="0.5" id="76bb8336-1f95-417a-a13f-d61a18d79a91"><stop stop-color="#26282a" offset="0"></stop><stop stop-color="#9e9fa0" offset="0.498"></stop><stop stop-color="#26282a" offset="1"></stop></linearGradient><rect width="395.52" height="104.25140015909693" fill="#000000" mask="url(#79236227-c417-467d-9eed-1ea0e94400ff)" data-fill-palette-color="primary"></rect></svg><rect width="395.52" height="104.25140015909693" fill="none" stroke="none" visibility="hidden"></rect></g></svg></g></svg>