<svg xmlns="http://www.w3.org/2000/svg" version="1.1" xmlns:xlink="http://www.w3.org/1999/xlink" xmlns:svgjs="http://svgjs.dev/svgjs" width="128" height="128" viewBox="0 0 128 128"><g transform="matrix(0.8046875,0,0,0.8046875,12.782433014029166,1.9524738898026257)"><svg viewBox="0 0 78 95" data-background-color="#efefef" preserveAspectRatio="xMidYMid meet" height="155" width="128" xmlns="http://www.w3.org/2000/svg" xmlns:xlink="http://www.w3.org/1999/xlink"><g id="tight-bounds" transform="matrix(1,0,0,1,-0.21388131159490342,-0.24049999999999727)"><svg viewBox="0 0 78.42776262318982 95.481" height="95.481" width="78.42776262318982"><g><svg viewBox="0 0 78.42776262318982 95.481" height="95.481" width="78.42776262318982"><g><svg viewBox="0 0 78.42776262318982 95.481" height="95.481" width="78.42776262318982"><g id="textblocktransform"><svg viewBox="0 0 78.42776262318982 95.481" height="95.481" width="78.42776262318982" id="textblock"><g><svg viewBox="0 0 78.42776262318982 95.481" height="95.481" width="78.42776262318982"><g><svg viewBox="0 0 78.42776262318982 95.481" height="95.481" width="78.42776262318982"><g><svg xmlns="http://www.w3.org/2000/svg" xmlns:xlink="http://www.w3.org/1999/xlink" version="1.1" x="0" y="0" viewBox="2.225800210941924 0 19.549237549165987 23.799999999999997" style="enable-background:new 0 0 24 24;" xml:space="preserve" height="95.481" width="78.42776262318982" class="icon-icon-0" data-fill-palette-color="accent" id="icon-0"><g fill="#9b4d4d" data-fill-palette-color="accent"><path d="M21.512 12.394c0 0-1.322-2.154-1.549-2.646-0.228-0.491-0.152-1.209 0-1.738 0.15-0.529 0-1.285 0-1.285C18.64 0.907 13.501 0 10.969 0S3.563 1.02 2.467 6.575c-1.082 5.485 1.765 8.323 2.834 10.088 0.443 0.732 0.283 2.79 0.043 4.063l8.433 3.074c0.113-0.588 0.178-1.066 0.178-1.431 0-2.91 2.154-2.646 4.119-2.759s1.983-0.699 1.965-1.247c-0.02-0.548 0.151-0.907 0.51-1.454 0.359-0.549-0.207-0.813-0.207-0.813 0.642-0.039 0.227-0.756 0.227-0.756s-0.604-1.135 0.566-1.398C22.306 13.679 21.512 12.394 21.512 12.394zM10.251 13.792C3.072 14.17 3.563 8.2 3.563 8.2c0.643-6.311 5.744-6.727 5.744-6.727 8.086-0.906 9.22 4.043 9.446 5.895C18.935 8.849 17.431 13.414 10.251 13.792z" fill="#000000" data-fill-palette-color="accent"></path><path d="M12.297 7.397c-0.016-0.111-0.102-0.206-0.219-0.226-0.038-0.007-0.075-0.006-0.11 0.003l-0.264 0.042c-0.065-0.419-0.211-0.814-0.425-1.168l0.229-0.139c0.034-0.017 0.063-0.039 0.086-0.068 0.077-0.091 0.083-0.219 0.024-0.313-0.185-0.255-0.404-0.492-0.655-0.703-0.251-0.212-0.523-0.385-0.806-0.522-0.105-0.041-0.229-0.016-0.305 0.076C9.827 4.407 9.809 4.441 9.799 4.475L9.703 4.722C9.512 4.648 9.311 4.591 9.102 4.554 8.893 4.517 8.684 4.502 8.479 4.505L8.473 4.241c0.002-0.036-0.002-0.073-0.015-0.109C8.417 4.02 8.312 3.954 8.199 3.956 7.884 3.988 7.569 4.058 7.261 4.17 6.952 4.281 6.666 4.43 6.404 4.606c-0.087 0.07-0.126 0.191-0.085 0.303 0.013 0.036 0.032 0.068 0.057 0.094l0.169 0.209C6.223 5.471 5.95 5.792 5.746 6.164l-0.235-0.13C5.48 6.013 5.447 5.999 5.41 5.992 5.292 5.971 5.179 6.031 5.126 6.129 4.997 6.417 4.902 6.725 4.844 7.048c-0.057 0.324-0.073 0.646-0.05 0.959 0.016 0.112 0.103 0.206 0.22 0.227C5.051 8.24 5.088 8.239 5.123 8.23l0.265-0.042c0.064 0.419 0.21 0.815 0.425 1.168l-0.23 0.138C5.55 9.512 5.521 9.534 5.497 9.563 5.42 9.654 5.415 9.782 5.473 9.877c0.185 0.254 0.403 0.492 0.655 0.703 0.25 0.211 0.522 0.384 0.805 0.522 0.105 0.042 0.229 0.015 0.306-0.077 0.024-0.03 0.042-0.063 0.052-0.097l0.096-0.247c0.191 0.076 0.392 0.132 0.602 0.169 0.21 0.037 0.418 0.053 0.623 0.047l0.005 0.265c-0.001 0.037 0.002 0.075 0.016 0.109 0.04 0.112 0.147 0.179 0.26 0.177 0.313-0.032 0.627-0.102 0.937-0.215 0.309-0.112 0.595-0.26 0.856-0.436 0.088-0.069 0.127-0.191 0.085-0.303-0.013-0.036-0.033-0.066-0.058-0.094l-0.167-0.208c0.322-0.259 0.596-0.58 0.8-0.951l0.234 0.129c0.03 0.02 0.064 0.034 0.103 0.041 0.116 0.021 0.229-0.038 0.283-0.137 0.127-0.287 0.223-0.595 0.28-0.918 0.058-0.325 0.073-0.647 0.051-0.961V7.397zM10.289 8.011c-0.17 0.96-1.09 1.605-2.051 1.435-0.961-0.17-1.605-1.09-1.436-2.051s1.091-1.606 2.052-1.437C9.814 6.128 10.458 7.051 10.289 8.011z" fill="#000000" data-fill-palette-color="accent"></path><polygon points="6.934,11.104 6.933,11.103 6.933,11.103  " fill="#000000" data-fill-palette-color="accent"></polygon><polygon points="8.894,11.45 8.893,11.449 8.892,11.449  " fill="#000000" data-fill-palette-color="accent"></polygon><circle cx="8.545" cy="7.702" r="1.0" fill="#000000" data-fill-palette-color="accent"></circle><path d="M16.252 4.29c-0.039-0.049-0.107-0.069-0.17-0.047-0.021 0.008-0.037 0.019-0.052 0.034l-0.18 0.146c-0.068-0.083-0.146-0.164-0.233-0.236-0.088-0.073-0.181-0.133-0.276-0.185l0.108-0.204c0.012-0.018 0.019-0.036 0.022-0.058 0.012-0.064-0.022-0.128-0.078-0.157-0.161-0.07-0.334-0.123-0.515-0.153-0.182-0.029-0.361-0.037-0.536-0.021-0.063 0.009-0.114 0.057-0.126 0.124-0.003 0.021-0.002 0.042 0.003 0.06l0.038 0.23c-0.218 0.035-0.428 0.113-0.62 0.232l-0.123-0.198c-0.009-0.018-0.021-0.034-0.037-0.048-0.053-0.043-0.122-0.045-0.177-0.011h0.001c-0.142 0.104-0.272 0.228-0.39 0.37-0.117 0.142-0.213 0.295-0.288 0.453-0.022 0.059-0.005 0.126 0.046 0.169 0.016 0.013 0.033 0.024 0.054 0.028l0.216 0.083c-0.077 0.21-0.114 0.431-0.107 0.651l-0.231 0.006c-0.02 0-0.04 0.002-0.061 0.009-0.062 0.024-0.1 0.084-0.096 0.147 0.018 0.175 0.061 0.35 0.124 0.522 0.064 0.172 0.149 0.332 0.248 0.476 0.04 0.049 0.108 0.07 0.171 0.046 0.018-0.008 0.036-0.019 0.05-0.033l0.179-0.146c0.069 0.084 0.147 0.163 0.235 0.235 0.088 0.072 0.181 0.134 0.275 0.185L13.62 7.205c-0.011 0.017-0.018 0.038-0.021 0.057C13.587 7.328 13.62 7.39 13.676 7.42c0.161 0.069 0.334 0.123 0.516 0.152 0.181 0.029 0.361 0.038 0.537 0.022 0.062-0.009 0.113-0.057 0.125-0.123 0.003-0.021 0.001-0.042-0.005-0.062l-0.037-0.228c0.217-0.036 0.429-0.113 0.62-0.23l0.121 0.195c0.009 0.02 0.023 0.035 0.039 0.048 0.051 0.042 0.121 0.046 0.174 0.011v0.001c0.142-0.104 0.273-0.228 0.391-0.369 0.117-0.143 0.212-0.295 0.286-0.455 0.023-0.058 0.008-0.127-0.044-0.169-0.016-0.013-0.034-0.022-0.055-0.029l-0.217-0.08c0.08-0.213 0.115-0.435 0.107-0.655l0.233-0.008c0.021 0.002 0.041 0 0.061-0.008 0.063-0.023 0.101-0.084 0.098-0.147-0.019-0.173-0.062-0.35-0.126-0.521C16.436 4.593 16.352 4.434 16.252 4.29zM15.335 6.162c-0.363 0.442-1.017 0.504-1.459 0.14-0.442-0.364-0.508-1.017-0.144-1.458 0.364-0.443 1.019-0.506 1.461-0.142S15.7 5.72 15.335 6.162z" fill="#000000" data-fill-palette-color="accent"></path><path d="M15.618 9.177c-0.034-0.043-0.093-0.061-0.146-0.041-0.018 0.006-0.031 0.015-0.044 0.029l-0.154 0.125c-0.059-0.072-0.126-0.141-0.2-0.203-0.076-0.062-0.155-0.114-0.237-0.158l0.093-0.176c0.01-0.015 0.017-0.03 0.02-0.049 0.009-0.056-0.02-0.111-0.068-0.135-0.138-0.061-0.285-0.105-0.44-0.132-0.156-0.025-0.312-0.031-0.461-0.018-0.054 0.007-0.098 0.049-0.107 0.106-0.003 0.018-0.002 0.036 0.002 0.051l0.032 0.198c-0.188 0.03-0.367 0.097-0.531 0.2l-0.105-0.17c-0.009-0.016-0.02-0.03-0.033-0.041-0.045-0.037-0.105-0.039-0.151-0.01v0c-0.12 0.089-0.233 0.195-0.334 0.317-0.1 0.122-0.183 0.253-0.247 0.39-0.02 0.05-0.005 0.108 0.04 0.145 0.014 0.011 0.028 0.021 0.046 0.024l0.186 0.071c-0.067 0.18-0.098 0.37-0.092 0.559l-0.199 0.006c-0.017 0-0.034 0.001-0.052 0.007-0.054 0.021-0.085 0.072-0.082 0.126 0.015 0.149 0.051 0.3 0.106 0.448 0.055 0.148 0.128 0.284 0.213 0.409 0.035 0.042 0.093 0.06 0.146 0.04 0.017-0.007 0.032-0.017 0.044-0.029l0.153-0.125c0.06 0.071 0.126 0.14 0.202 0.202 0.075 0.062 0.155 0.115 0.236 0.159l-0.093 0.175c-0.01 0.015-0.016 0.032-0.019 0.049-0.01 0.057 0.019 0.11 0.065 0.136 0.14 0.059 0.287 0.105 0.443 0.13 0.156 0.024 0.311 0.032 0.46 0.019 0.054-0.007 0.099-0.049 0.107-0.105 0.004-0.019 0.002-0.036-0.003-0.053l-0.031-0.196c0.186-0.03 0.367-0.097 0.531-0.197l0.104 0.167c0.008 0.018 0.021 0.03 0.034 0.042 0.043 0.036 0.104 0.039 0.148 0.01 0.122-0.089 0.235-0.195 0.335-0.316 0.102-0.122 0.184-0.253 0.246-0.39 0.021-0.05 0.007-0.11-0.037-0.146-0.014-0.011-0.029-0.019-0.047-0.024l-0.187-0.068c0.068-0.183 0.1-0.374 0.093-0.563l0.199-0.006c0.019 0.001 0.036 0 0.053-0.007 0.054-0.02 0.086-0.072 0.084-0.126-0.017-0.149-0.053-0.3-0.108-0.448C15.776 9.437 15.703 9.3 15.618 9.177zM14.831 10.784c-0.313 0.379-0.873 0.433-1.253 0.121-0.381-0.313-0.436-0.874-0.123-1.253 0.313-0.381 0.874-0.436 1.255-0.122C15.089 9.842 15.144 10.404 14.831 10.784z" fill="#000000" data-fill-palette-color="accent"></path><polygon points="15.201,11.68 15.2,11.68 15.2,11.681  " fill="#000000" data-fill-palette-color="accent"></polygon></g></svg></g></svg></g></svg></g></svg></g></svg></g></svg></g><defs></defs></svg><rect width="78.42776262318982" height="95.481" fill="none" stroke="none" visibility="hidden"></rect></g></svg></g></svg>